<?xml version="1.0" encoding="UTF-8"?>
<svg id="Layer_1" xmlns="http://www.w3.org/2000/svg" xmlns:xlink="http://www.w3.org/1999/xlink" version="1.1" viewBox="0 0 864 864">
  <!-- Generator: Adobe Illustrator 29.7.1, SVG Export Plug-In . SVG Version: 2.1.1 Build 8)  -->
  <defs>
    <style>
      .st0, .st1, .st2, .st3 {
        fill: none;
      }

      .st4 {
        fill: #84173e;
      }

      .st5 {
        fill: #511b2d;
      }

      .st6 {
        fill: #6d152c;
      }

      .st7 {
        fill: url(#linear-gradient1);
      }

      .st8 {
        fill: #931c41;
      }

      .st9 {
        fill: #fed402;
      }

      .st10 {
        fill: #00281f;
      }

      .st10, .st11, .st12, .st1, .st13, .st14, .st15, .st2, .st3, .st16 {
        stroke-miterlimit: 10;
      }

      .st10, .st11, .st12, .st1, .st13, .st14, .st2, .st3, .st16 {
        stroke: #231f20;
      }

      .st10, .st11, .st12, .st2 {
        stroke-width: 3px;
      }

      .st17 {
        fill: #231f20;
      }

      .st11 {
        fill: #fbab1f;
      }

      .st12 {
        fill: #5e5f5f;
      }

      .st18 {
        fill: #7f6629;
      }

      .st19 {
        fill: url(#linear-gradient);
      }

      .st20 {
        fill: #821936;
      }

      .st21 {
        fill: #d1a770;
      }

      .st22 {
        fill: #0f0908;
      }

      .st23 {
        fill: #7a4b1f;
      }

      .st24 {
        fill: #72411b;
      }

      .st25 {
        fill: #fee266;
      }

      .st26, .st15 {
        fill: #fff;
      }

      .st27 {
        fill: #90772d;
      }

      .st28 {
        fill: #a97c50;
      }

      .st29 {
        fill: #841618;
      }

      .st30 {
        fill: #911934;
      }

      .st1 {
        stroke-width: 2px;
      }

      .st31 {
        fill: #6f421a;
      }

      .st32 {
        fill: #29847d;
      }

      .st33 {
        fill: #0a9246;
      }

      .st34 {
        fill: #591127;
      }

      .st35 {
        fill: #eab881;
      }

      .st13 {
        fill: #a12043;
      }

      .st13, .st16 {
        stroke-width: 5px;
      }

      .st36 {
        fill: #0a100f;
      }

      .st14 {
        fill: #f1f2f2;
      }

      .st14, .st3 {
        stroke-width: 14px;
      }

      .st37 {
        fill: #c9a42d;
      }

      .st38 {
        fill: #935724;
      }

      .st39 {
        fill: #26726a;
      }

      .st15 {
        stroke: #3c2415;
        stroke-width: 4px;
      }

      .st40 {
        fill: #c48e4d;
      }

      .st41 {
        fill: #edced0;
      }

      .st42 {
        fill: #5b1028;
      }

      .st43 {
        fill: #f5cc24;
      }

      .st44 {
        clip-path: url(#clippath);
      }

      .st45 {
        fill: #6cad44;
      }

      .st46 {
        fill: #d78d28;
      }

      .st16 {
        fill: #3e4024;
      }

      .st47 {
        fill: #e5b630;
      }
    </style>
    <linearGradient id="linear-gradient" x1="379.4" y1="462.7" x2="484.7" y2="462.7" gradientUnits="userSpaceOnUse">
      <stop offset=".5" stop-color="#f05963"/>
      <stop offset="1" stop-color="#f8cc34"/>
    </linearGradient>
    <clipPath id="clippath">
      <rect class="st0" x="252.5" y="194.2" width="495.3" height="495.3" rx="12" ry="12"/>
    </clipPath>
    <linearGradient id="linear-gradient1" x1="498.6" y1="46.7" x2="500.7" y2="572.5" xlink:href="#linear-gradient"/>
  </defs>
  <rect class="st14" x="234.9" y="176.2" width="521.5" height="530.1" rx="12" ry="12"/>
  <path class="st19" d="M431.6,451c1.9-.2,4-.3,5.7.5,1.5.7,2.6,2.2,3.9,3.3,5.6,4.9,14,3.5,21.5,3.6,7.6,0,15.2,2,22,5.5-5.3,4.9-13.6,2.2-20.8,2.2-8.3,0-16.1,3.7-24.3,4.9-8.2,1.2-16.5-.2-24.8,0-10.3.2-20.5,2.9-30.8,3.5-1,0-2.1,0-3-.4-1.9-1-2-3.9-.8-5.7,1.2-1.8,3.3-2.7,5.3-3.5,7.3-3.1,13.9-7.5,20.9-10.7s17.4-2.6,25.2-3.2Z"/>
  <g class="st44">
    <rect class="st7" x="252.5" y="194.2" width="495.3" height="495.3" rx="12" ry="12"/>
    <circle class="st43" cx="500.1" cy="516.9" r="108"/>
    <path class="st26" d="M749.4,438.8c-3.9-1.5-8-2.5-12.4-2.7-16.2-.7-30.4,8.7-36.7,22.6-3.8-1.5-7.8-2.4-12.1-2.6-21.1-1-39,15.4-40,36.5,0,1.5,0,3,0,4.5-19.2.2-35.3,14.6-37.6,33.6-5.4-3.3-11.6-5.4-18.3-5.7-21.1-1-39,15.4-40,36.5-1,21.1,15.4,39,36.5,40,2.5.1,4.9,0,7.2-.4,6.5,10,17.5,16.8,30.3,17.4,17.9.8,33.5-10.9,38.4-27.4,3.4,16.9,17.8,29.9,35.8,30.7,7,.3,13.7-1.3,19.5-4.4,3.4,15.3,16,27.2,31.9,29.5,10.8-27.5,17.4-57.3,18.8-88.5,1.9-42.5-5.9-83.1-21.4-119.9Z"/>
    <path class="st26" d="M240.1,438.8c3.9-1.5,8-2.5,12.4-2.7,16.2-.7,30.4,8.7,36.7,22.6,3.8-1.5,7.8-2.4,12.1-2.6,21.1-1,39,15.4,40,36.5,0,1.5,0,3,0,4.5,19.2.2,35.3,14.6,37.6,33.6,5.4-3.3,11.6-5.4,18.3-5.7,21.1-1,39,15.4,40,36.5,1,21.1-15.4,39-36.5,40-2.5.1-4.9,0-7.2-.4-6.5,10-17.5,16.8-30.3,17.4-17.9.8-33.5-10.9-38.4-27.4-3.4,16.9-17.8,29.9-35.8,30.7-7,.3-13.7-1.3-19.5-4.4-3.4,15.3-16,27.2-31.9,29.5-10.8-27.5-17.4-57.3-18.8-88.5-1.9-42.5,5.9-83.1,21.4-119.9Z"/>
    <ellipse class="st39" cx="500.1" cy="671.5" rx="262.6" ry="111.1"/>
    <g>
      <path class="st32" d="M616,576.1c-.8-.2-1.6-.3-2.4-.5.2.5.3,1.1.3,1.7-.4,5.6-24.1,4.2-28.5,4.4-19.1,1.1-38.2,2.1-57.3,2.4-21.3.4-42.6-.2-63.8-.8-15.2-.4-30.4-.8-45.6-1.2-6.2-.2-12.4-.3-18.5-1.1-1.8-.2-3.7-.6-5.1-1.6-1.3-.9-2.1-2.6-1.8-4.1-4.3,3.3-1.6,5,2.7,6.3,7.2,2.1,13.7.3,20.5,4.9-7,.3-14.2.6-20.7,3.2-6.5,2.6-12.3,8.1-13.3,15-.2,1.2-.2,2.5.4,3.6.6,1,1.8,1.6,2.9,2.1,17.9,7.9,38.6,6.4,56.9,13.3,2.6,1,5.5,2.9,5,5.6-.4,2.4-3.2,3.3-5.6,3.9-13.8,3.1-27.6,6.2-41.3,9.3-8.5,1.9-18.2,4.7-21.7,12.8-.6,1.4-.9,3-.2,4.3.6,1,1.7,1.5,2.7,1.9,15.4,6.9,31.8,11.7,48.6,14.2,12.1,1.8,25.2,2.7,34.8,10.3,1.3,1.1,2.7,2.5,2.5,4.2-.3,2.1-2.8,3-4.8,3.6-7.8,2.5-14.7,7.9-19.1,14.8-1.6,2.5-2.8,5.4-2.1,8.3,1.1,4.1,5.7,6,9.8,7.3,17,5.5,34.1,10.9,51.1,16.4-3.9,1-6.5,5.2-6.3,9.2.3,4,3.1,7.6,6.7,9.4,2.4,1.2,5.1,1.6,7.7,1,1.7-.4,3.3-1.2,4.8-2.1,9.4-5.4,17.8-12.6,24.7-21-3.9.4-6.8-4.1-6.4-7.9.4-3.9,3.1-7.1,5.6-10,7.3-8.6,14.7-17.2,22-25.8,2.2-2.6,4.6-6,3.2-9.1-2.2-5.1-12.4-4.9-11.9-10.4,0-1,.6-1.9,1.1-2.7,4-6,11.4-8.5,17.8-11.7,6.4-3.2,13-8.8,12.5-16-.7-10.1-13.8-13.8-19.7-21.9,8.9-3.2,17.9-6.4,26.8-9.6,0-4.4-5-7.2-9.4-7.7s-9.1.2-13.1-1.7c-1.3-.6-2.6-1.7-2.4-3.1.2-1.4,1.7-2.1,3-2.6,9.2-3.2,18.7-5.3,28.4-6.2,8.2-.8,17.8-1.3,22.5-8.1.6-.9,1.1-1.9,1-3-.3-2.1-2.8-3-4.8-3.5Z"/>
      <path class="st32" d="M395,579.4c1.5,1.1,3.3,1.4,5.1,1.6,6.1.8,12.3,1,18.5,1.1,15.2.4,30.4.8,45.6,1.2,21.3.6,42.6,1.1,63.8.8,19.1-.3,38.2-1.4,57.3-2.4,4.4-.2,28.1,1.2,28.5-4.4,0-.6,0-1.1-.3-1.7-2.3-6.3-19.8-9-24.1-9.8-36.7-6.3-74.2-7.1-111.4-5.7-27.3,1-54.9,3.3-80.8,11.9-1.5.5-3.2,1.2-3.9,2.6,0,.2-.2.4-.2.7-.3,1.5.6,3.2,1.8,4.1Z"/>
    </g>
    <ellipse class="st45" cx="613.5" cy="716.8" rx="269.4" ry="153.9" transform="translate(-76.9 73.7) rotate(-6.5)"/>
    <rect class="st0" x="252.5" y="194.2" width="495.3" height="495.3" rx="12" ry="12"/>
  </g>
  <g>
    <g>
      <path class="st33" d="M681.9,289.9c10.3,36.6,33.1,257.1.2,346-2.5,6.7,2.4,13.8,9.5,13.8h16.1c4.6,0,8.6-3.1,9.8-7.5,7-26,27.2-232.9-13.3-358.9-1.7-5.2-6.8-8.6-12.2-8h0c-7.2.7-12,7.8-10.1,14.7Z"/>
      <path class="st33" d="M609.4,381.5c.4-6,1.1-12.4,2.3-19.2l7-3.5-5.5-3.5c1.1-4.5,2.4-9.1,4-13.7l6.5-14.9c3.2-6.1,7.1-12.1,11.8-17.7l6.3,4-1.7-9.2c2.5-2.5,5.1-5,7.9-7.3l13.4-9.3c8.6-5,18.7-9.1,30.3-12.1,0,0,1.1,10.9-.9,27,0,0-4,20.6-5.1,24.5l-8.7-1.4,6.4,8.5c-.8,2.3-1.7,4.6-2.6,6.9l-12.3-1.3,10.3,5.9c-2.4,5.3-27,40.1-34.4,46.5l-11.5-7.8,5.1,13.1c-1.9,1.4-3.8,2.8-5.8,4.2l-4.6,3c-5.3,3.4-10.9,6.6-17.1,9.5,0,0-1.7-10-1.4-24.7l.3-7.5Z"/>
      <path class="st33" d="M760.6,180.7h9.3c-.4,6-1.1,12.4-2.3,19.2l-1.5,7c-1.1,4.5-2.4,9.1-4,13.7l-9.6,3.4,3.1,11.5c-3.2,6.1-7.1,12.1-11.8,17.7l-6.3-4,1.7,9.2c-2.5,2.5-5.1,5-7.9,7.3l-13.4,9.3c-8.6,5-18.7,9.1-30.3,12.1,0,0-1.1-10.9.9-27l2.2-13.2c.8-3.6,1.7-7.4,2.9-11.3l8.7,1.4-6.4-8.5c.8-2.3,1.7-4.6,2.6-6.9l2-4.6c2.4-5.3,5.2-10.6,8.4-15.9l10-5.6-3-4.7c5.3-7,11.6-13.9,19-20.3l6.5-5.3c1.9-1.4,3.8-2.8,5.8-4.2l4.6,3.1v-6.2c5.3-3.4,10.9-6.6,17.1-9.5,0,0,1.7,10,1.4,24.7l-9.6,7.5Z"/>
      <path class="st33" d="M569,269.9l-5.9,7.5c-4.5.2-8.8.5-12.9.9l-1.5-5.9-5.3,6.8c-4.4.6-8.5,1.4-12.2,2.4,0,0,34.2-47.2,94-41.8,59.8,5.4,62.1,47.4,62.1,47.4,0,0-9.9-1.6-25-3.6v-13.6l-9.1,12.5c-4.6-.5-9.5-1.1-14.6-1.6l-4.2-.4c-6.1-.6-12.5-1.2-19.1-1.7l-6-11.4-7.2,10.5c-5.4-.3-10.7-.5-16-.6h-6.4c-2.9-.1-5.9-.1-8.7,0l-1.8-7.2Z"/>
      <path class="st33" d="M801.4,311.3l3.4,8.9c4.2,1.5,8.3,3.1,12.1,4.7l3.2-5.2,3,8c4,1.9,7.7,3.9,10.9,6,0,0-18.5-55.3-77.2-68-58.7-12.7-73.4,26.6-73.4,26.6,0,0,9.9,1.4,24.9,4.1l4.1-13,5,14.6c4.5.8,9.4,1.8,14.4,2.8l2.5-8,1.6,8.9c6,1.3,12.3,2.6,18.7,4.1l5.6-11.5,7.1,14.6c5.2,1.3,10.4,2.7,15.5,4.2l6.3-5.7-.2,7.5c2.8.9,5.6,1.7,8.3,2.6l3.9-6.4Z"/>
      <path class="st33" d="M642.8,231.6c-2.1-3.4-4.1-6.9-5.9-10.6l4.3-6.3h-7.2c-2.3-5.4-4.2-11-5.7-17l6.2-6.4-8.4-5.6c-.3-2.8-.6-5.6-.7-8.4v-6.9c0-2.2.1-4.4.3-6.7l2-13.4c.6-2.7,1.3-5.4,2.1-8.2,0,0,14,4.9,29.5,18.7l7.5,7.3c3.6,3.9,7.2,8.2,10.5,13.1l5,7.9c2.1,3.6,4.1,7.5,5.9,11.7l-8.3,4.7,11.7,3.8c2,5.5,3.7,11.5,5,17.9l-7.9,7.6,9.8,3.2c.7,5.2,1.2,10.6,1.4,16.3v9.3c0,7.5-.4,15.3-1.4,23.7,0,0-25-14.7-45.9-41.2l-10-14.3Z"/>
      <path class="st33" d="M728.8,364.6h-20c-2.1-3.4-4.1-6.9-5.9-10.6l9.8-6.3h-12.7c-2.3-5.4-4.2-11-5.7-17l14.2-14.6-16.5,2.6c-.3-2.8-.6-5.6-.7-8.4l9-2.3-9.1-4.6c0-2.2.2-4.4.4-6.7l12.8,4.5-10.8-17.9c.6-2.7,1.3-5.4,2.1-8.2,0,0,14,4.9,29.5,18.7l7.5,7.3c3.6,3.9,7.2,8.2,10.5,13.1l-8.3,10,13.3-2.1c2.1,3.6,4.1,7.5,5.9,11.7l-8.3,4.7,11.7,3.8c2,5.5,3.7,11.5,5,17.9l-7.9,7.6,9.8,3.2c.7,5.2,1.2,10.6,1.4,16.3l-5.5,3,5.6,6.3c0,7.5-.6,15.3-1.5,23.7,0,0-25-14.7-45.9-41.2l10-14.3Z"/>
    </g>
    <g>
      <path class="st33" d="M630.3,425.9c11.4,21.8,53.8,158.2,42.9,218.7-.8,4.5,3.3,8.4,8,7.5l10.7-2.1c3.1-.6,5.3-3.1,5.6-6,1.5-17.4-10.7-150.8-53.3-225.2-1.8-3.1-5.6-4.5-9.1-3.5h0c-4.7,1.4-7,6.5-4.9,10.6Z"/>
      <path class="st33" d="M619.2,500.8l2.9,2.8c2.6-3.1,5.3-6.6,7.8-10.5l2.5-4.1c1.6-2.7,3.1-5.6,4.5-8.6l-1.8-7.8,5.6-2.5c1.3-4.5,2.2-9.2,2.5-14.2l.2-4.7c0-2.4-.2-4.8-.5-7.3l-2.2-10.8c-1.9-6.5-4.9-13.2-9.2-20.1,0,0-5.6,4.8-12.2,13.6l1.6,5-6.7,2.5c-1.3,2.1-2.6,4.4-3.9,6.9l-2.2,4.5c-.7,1.5-1.3,3-2,4.6l4,1.5-5.2,1.7c-1.3,3.7-2.4,7.6-3.3,11.7l-1.4,8.3c-.7,5.9-.8,12.2-.2,18.8l6.5,1.1-5.8,4.5c.2,1.6.5,3.2.8,4.8l.8,3.6c1,4.1,2.3,8.3,3.9,12.6,0,0,5.5-4.1,12.3-11.4l.5-6.6Z"/>
      <path class="st33" d="M642.1,334.5l-4.5-4.4c-2.6,3.1-5.3,6.6-7.8,10.5l-2.5,4.1c-1.6,2.7-3.1,5.6-4.5,8.6l1.7,7.9-5.5,2.4c-1.3,4.5-2.2,9.2-2.5,14.2l5,1-5.1,3.7c0,2.4.2,4.8.5,7.3l10.3,4.2-8.1,6.6c1.9,6.5,4.9,13.2,9.2,20.1,0,0,5.6-4.8,12.2-13.6l5.1-7.5c1.3-2.1,2.6-4.4,3.9-6.9l2.2-4.5c.7-1.5,1.3-3,2-4.6l-4-1.5,5.2-1.7c1.3-3.7,2.4-7.6,3.3-11.7l-4-5.6,5.4-2.8c.7-5.9.8-12.2.2-18.8l-4.4-2.3,3.7-3.3c-.2-1.6-.5-3.2-.8-4.8l-.8-3.6c-1-4.1-2.3-8.3-3.9-12.6,0,0-5.5,4.1-12.3,11.4l1.2,8.2Z"/>
      <path class="st33" d="M694.2,467.8l-.6,6.4c2.1,2.2,4.1,4.4,5.9,6.5l3.5-2.2-.6,5.8c1.9,2.4,3.5,4.7,4.8,6.9,0,0,5.4-39.1-26.4-64.4-31.8-25.3-52.6-5.9-52.6-5.9,0,0,35.8,26.8,39.2,29.6l6.9-5.3v11c2.7,2.4,5.4,4.8,8.1,7.2l3.2,3c1.5,1.4,2.9,2.7,4.3,4.1l4.3-2.7Z"/>
      <path class="st33" d="M547.1,378.7l.9-4.1-5.2,2.5c-2.9-.9-5.6-1.7-8.2-2.2,0,0,34.9-18.4,69.6,2.8,34.6,21.2,23.5,47.4,23.5,47.4,0,0-37.4-24.5-41.2-26.8v-6.3s-7.7,1.9-7.7,1.9c-3.2-1.8-29-14.3-31.6-15.3Z"/>
      <path class="st33" d="M668,410.2l8,4.3c2.6-.7,5.2-1.5,7.8-2.5l4.4-1.7c3.6-1.6,7.2-3.4,10.7-5.6l1.2-8.3,5.5,3.4c1.5-1.2,2.9-2.5,4.3-3.8l3.3-3.3c1-1.1,2-2.2,2.9-3.4l5.3-7.5c1-1.6,1.9-3.2,2.8-5,0,0-9.1-4.2-23.2-4.7l-2.8,4.2-4.3-4.1c-3.6.2-7.3.7-11.3,1.5l-6.1,1.5c-2.7.8-5.5,1.8-8.4,2.9l1.9,6.2-7.5-3.6c-3.6,1.8-7.2,3.9-10.8,6.4l-5.9,4.4c-2.8,2.2-5.5,4.6-8.3,7.3l-4.4,4.5c-3.5,3.7-6.9,7.8-10.3,12.3,0,0,19.2,4.5,41.7,1.3l3.6-6.7Z"/>
      <path class="st33" d="M574.1,444.8l7.3,4c2.6-.7,5.2-1.5,7.8-2.5l4.4-1.7c3.6-1.6,7.2-3.4,10.7-5.6v-5.3s6.7.5,6.7.5c1.5-1.2,2.9-2.5,4.3-3.8l-3.3-5.3,6.6,2c1-1.1,8.2-10.9,8.2-10.9,1-1.6,1.9-3.2,2.8-5,0,0-9.1-4.2-23.2-4.7h-7.1c-3.6.3-7.3.7-11.3,1.6l-.6,8.8-5.5-7.2c-2.7.8-5.5,1.8-8.4,2.9l-5.6,2.6c-3.6,1.8-7.2,3.9-10.8,6.4l.3,7.4-6.3-3c-2.8,2.2-5.5,4.6-8.3,7.3l-4.4,4.5c-3.5,3.7-6.9,7.8-10.3,12.3,0,0,19.2,4.5,41.7,1.3l4.3-6.3Z"/>
    </g>
  </g>
  <path class="st3" d="M437,174.8c0-62.6,28.2-113.4,62.9-113.4s63.3,51.6,63.3,114.2"/>
  <g>
    <path class="st15" d="M445.6,573.7c.2-.7.5-.8.8-.4.2.4.4,1.1.5,1.6.3.8.8,1.8,1.9,3.4.9,1.4,1.5,2.7,1.7,4l.3,2.1c.3,2.3.5,6.5.4,12.4s0,11.4.4,16.6c.4,5.1.4,8.7,0,10.5-.4,2-1.3,3.8-2.5,5.4-1.1,1.8-1.9,2.6-2.2,2.5-.1,0-.9-.2-1.8-.9-1.2-.4-2.3-.8-3.6-.9-1.3,0-3.1-1-5-2.9-2.2-1.9-3.6-3.4-4.2-4.2-.7-1-1.3-3-1.7-6.2l-1.5-10.8c-.4-4.1-.3-9,.7-15,1-5.7,1.7-9.5,2.3-11.2.8-1.5,1.3-2.4,2.2-2.3.5,0,1.7.2,3.3.6,1.6.5,2.4.4,2.8-.3.3-.6.4-2.1.2-4.5-.2-2.3.1-3,1-1.8.3.4.6.6.9.6.4.2.6.3.8.7.2.3.5.6,1.2,1.2.8.5,1.3.4,1.4-.2ZM440.7,536.9c.2.1.3.2.3.4.2,1.1.9,1.7,2.5,1.6.4,0,.9.6,1.3,1.4.4.8,1.2,2.2,2.4,4.4,1.2,2.2,1.8,3.8,2,4.9.2,1.1-.1,2.1-.8,3.3-.7.9-1.3,2-1.8,3-.5,1.1-.9,1.5-1.4,1.3-.4,0-.6-.2-.6-.3h.1c-.2-.3-1-.3-2.5,0-1.4,0-2.4,0-3-.4-.6-.3-2.3-.8-5.2-1.2-2.8-.3-4.5-2-5-4.9-.4-2.9,0-5.6,1.5-7.9.6-.8,1.7-.9,3.4-.5,1.9.4,2.9.7,3.2.8.3-.2.6-.9,1-2.1.4-1.3.4-2.4,0-3.3-.6-1-.6-1.6-.5-1.7l3.1,1.4Z"/>
    <path class="st15" d="M507,608.2c.2.5.8,1.7,1.7,3.4.9,1.7,1.7,4.1,2.1,7.2.4,3.2-.6,6.4-3.1,9.7-2.5,3.3-5.4,5.2-8.7,5.7-3.1.4-9.4-.3-18.5-2.4-9.1-1.9-14.7-3.9-16.5-5.9-1.8-2-2.9-3.6-3.1-5-.2-1.5,0-3.1.7-5.1.7-1.8,2-2.9,4.1-3.4,1.9-.3,3-.7,2.8-1.2-.2-.5-.6-1-.9-1.5-.6-.5-.8-.7-.8-1,0,0,.1-.2.4-.2.4,0,3.1,1.2,8.1,3.9,5,2.6,8.9,3.9,11.7,3.8,2.8-.1,4.7-.3,5.7-.4,1.9-.3,2.7-1.6,2.4-3.8-.3-2.5-2.6-4.7-6.9-7.1-4.4-2.2-10.5-5.2-18.6-8.8-7.9-3.6-12.2-7.3-12.8-11.3-.5-3.8,1.7-7.6,6.9-11.5,1.9-1.4,4.1-3.4,6.8-6.1,2.7-2.8,6.4-4.8,11.3-6.6,5-1.5,8.7-2.6,11.3-3,2.7-.4,4.8-.3,6.5.5,1.5.6,2.4.9,2.8,1,.3,0,.5.5.8,1,0,.4.4.8.9.7.3.2.9.7,1.7,1.9.9,1.1,1.7,2.3,2.6,3.7.9,1.3,1.2,2.5.8,3.8-.4,1.3-.7,2.1-1,2.1,0,.3-.3.6-.4,1.4,0,.6-.6.9-1.5.9-1,0-2.6,0-5.1.4-2.5.4-6.8,2.1-13.2,5.4-6.4,3.1-10,5.6-10.9,7.6l-.6,1.3,2.2,1.5c2.9,2,6.6,4,10.8,6,4.3,2,7.5,3.7,9.8,5.2,2.3,1.5,3.5,2.2,3.8,2,.1-.2.3,0,.4.5l3.5,4ZM478,565.3c1.1-.4,2.1-.9,3.1-1.1.9-.3,1.7-.7,2.2-1.2.5-.4.8-.4.9-.4,0,.3.2.3.4,0,.3,0,1.3-.7,3.3-1.6,1.9-1.1,2.9-1.5,2.9-1.5,0-.1-.2-.1-.3,0-.3,0-1.9.5-4.5,1.6-2.9,1.1-4.5,1.8-5.1,2.1-.7.2-1.4.6-2.8,1.2-1,.6-1.7.9-1.6,1.2,0,.3.6.2,1.6-.2Z"/>
    <path class="st15" d="M522.2,616.7l-3.1-3.8-.6-9.3c-.7-14-.6-35.5.2-64.4.3-6.5,1.5-9.9,3.9-10.2.7,0,2.3.2,5,1.1,1,.3,1.6-.4,1.9-1.7.2-1.3.3-2.6.2-3.8s-.1-1.9,0-2.4c.4,0,1.3.5,2.6,1.7,1.6,1.2,2.3,1.6,2.4,1.5,0-.7.2-.9.8-.5.3.4.7.9,1.1,1.5,0,.7.7,1.7,1.3,3.3.6,1.4,1.3,3.9,1.7,7,.5,3.3.5,10.5.3,21.8-.2,11.1-.3,22.4,0,34,.4,11.5.5,18,.4,19.4,0,1.3-1,3.5-2.8,6.7-1.9,3.2-3.2,5.1-4.1,5.9-.9.8-1.8.8-2.9.1h.1c-3-2.1-5.7-4.8-8.4-7.9Z"/>
    <path class="st15" d="M609.8,560.6c.2.7.8,2,2,4,1.1,2.1,2.5,6.9,4.2,14.5,1.8,7.6,3.8,13.1,6.4,16.8,2.6,3.5,4,6.3,4.2,8.1.3,1.9.2,3.3-.4,4.2-.6.8-.9,1.7-1.2,2.4-.3.9-1.3.9-3.2,0h-.1c-1.1-.5-1.8-.8-2.1-.7-.3.2-1.1,0-2.7-.5-1.6-.5-3.4-.6-5.5-.6-3.2,0-6.8-2.7-10.5-8-1.9-2.7-3.4-6-4.2-9.9-1.1-3.9-1.7-6.2-2.1-6.6-.2-.4-.9.4-2,2.5-1.1,2.1-3.3,6.5-6.6,13.4-3.3,6.6-5.5,10.4-6.9,11.2-1.4.8-2.5,1.2-3.3,1.3-1,.1-2,0-3.1-.5-1.3-.5-2.1-.7-2.3-.5-.3,0-1.1-.1-2.3-.5-1.5-.5-3.3-.6-5.7-.7-4.5,0-8.5-3.5-11.9-10.7-.6-1.4-1.2-3.3-1.5-5.8-1.6-11.4,1-21.8,7.6-31,2.9-3.9,5.1-6.2,6.8-7,1.7-.7,3.6-2.2,5.9-4.6,2.2-2.4,5.3-3.8,9.4-4.4,4-.6,8.4.9,13.2,4.5,2,1.5,2.8,2,2.3,1.4-.5-.6-.8-1-.7-1.2l5,6.4c.4-.2.7-.9,1.4-2,.4-1,1.2-1.3,2.4-.5,1,.8,1.8,1.1,2.1,1,.5-.2.8,0,1,.4.2.4.5.9.6,1.3.4.5.5.8.9.7,1.5-.4,2.5,0,2.9,1.5ZM573.9,552.9c1.1-1.1,2-2,2.7-2.5.8-.5.7-.7.2-.7-.8,0-1.9.3-3.4.9-1.4.6-2.5,1.2-2.9,2-.3.7-.5,1.1-.4,1.2,1.5.6,2.7.3,3.8-.8ZM583.9,565.3c-.7,0-2.2,1-4.7,2.6-5.3,3.7-8.2,9.8-8.8,18.6,0,2.3,0,4.3.2,6.3.3,1.9,1,2.8,2,2.5,1.1-.2,2.9-1.5,5.3-3.8,2.6-2.6,5.3-6.2,8.1-10.9,2.8-4.9,4.2-8,4-9.2-.2-1.2-.2-2.6,0-4.2.2-1.4-.6-2.2-2.4-2h-1.9c0,.1-1.8.3-1.8.3ZM601.7,557.5c-.2-1.2-.6-1.3-1.4-.2-.8,1-1.1,1.8-1,2.5,0,.7.2,1.4.4,1.8l1.1-1c.7-.8,1-1.8,1-3.1Z"/>
    <path class="st15" d="M677.5,556.3c-.3-2.1-.5-3.3-.8-3.8,0-.4-1.2-.4-3,.3-1.9.7-4.4,2.3-7.8,5.2-7.6,6.5-13.3,15.6-17,27.1-.8,2.9-1.3,6.3-1.3,10.2-.1,3.9-.5,6.4-1.4,7.6-.7.9-1.4,2.1-1.8,3.1-.5,1.2-1.1,1.1-1.9.1h.1c-.5-.4-.9-.6-1.6-.5-.7-.2-1.6-.5-2.9-1-1.4-.6-2.4-.9-2.9-.7-.8.3-1.3.3-2,.4-.7,0-1.9-.4-3.4-1.6-1.8-1-2.9-3.4-3.3-6.8-.5-3.6-.8-10.6-.9-21.4,0-10.8-.2-18-.3-21.8-.3-3.7-.2-6,.2-6.5.4-.5.5-1.1.6-1.5,0-.6.2-1.3.7-2.1.6-.8,1.3-1,1.8-.8,3.4,1.1,5.3,1.6,5.9,1.5.5,0,.9-.3,1-.8,0-.3.4-1.2.8-2.1.3-1.2.4-2.3,0-3.6-.2-1.2-.1-1.9,0-2,.4,0,1.4.8,2.8,1.8,1.6,1.2,2.6,1.6,3,1.1.4-.5.8-.3,1,.8.4.8.9,2.1,1.6,3.7.8,1.6,1.3,3.4,1.6,5.6.3,2.1.5,4.4.6,6.9l.4,8.7,1.3-1.7c4.2-5.8,8.4-10.7,12.6-14.6,4.2-3.9,6.6-6,7.1-6l5.7-1.4c1.8-.3,3.1-.7,3.8-1.1.6-.6,1-.7,1-.7.2.3.5,0,1-.7.7-.7,1-.8,1.2-.6v.4c.2-.2.3-.3.4-.5.6-1.3.4-1.9-.8-1.7-.3.2-1.7.7-4.5,1.5,1.1-1.4,2.7-2.3,5.2-2.7,2.2-.3,4.2,0,6,.8,1.5,1,2.6,1.3,2.8.7.2-.3.5-.4.7.2.4.6.7,1.2,1,1.8.2.5.7.7,1.4.9.7,0,1.6,1.7,3.1,5,1.4,3.3,2.2,6,2.5,8,.3,2.1.5,4.3.7,6.7.2,2.5.3,7.9.4,16.4,0,8.5.1,13.5-.2,15.4,0,1.8-.9,3.8-2.2,5.9-1.3,2-2.5,3.1-3.4,3.3-1,.1-2-.1-3-.7-1.1-.5-2.2-.9-3.7-1.2-1.5,0-3.2-.9-5.4-2.4-1.9-1.5-3.1-2.9-3.2-4l-.9-34.7Z"/>
    <path class="st15" d="M765,501.3c0-.3.4-.5.5-.6.7,0,1.2.5,1.5,1.6.1.8.7,2.3,2,3.9,1.1,1.7,1.7,3.2,1.9,4.6s.2,6-.2,13.6c-.3,7.9.1,15.8,1.3,24.1,1.2,8.4,2.6,15,4,20.2,1.4,5.2,2.3,8.6,2.6,10.1.2,1.6.3,2.9,0,3.9-.3.9-.8,2.2-1.5,3.9-.9,1.7-1.6,2.6-2.1,2.7-.5,0-1.1,0-1.7-.2-.7-.2-1.3-.4-1.8-.9-.6-.2-1.8-.6-3.3-.6-1.6-.3-3.7-1.2-6.1-2.6-2.4-1.5-4.1-3.2-4.7-4.8-.7-1.9-1.3-3.6-2-5.4-.5-1.9-.8-3-1-3.1-.1.2-.5,1.1-1.1,3-2.4,8-5.1,13-8.3,15.3-3.2,2.3-5.5,3.4-6.9,3.6-1.4.2-2.8,0-4.3-.5s-2.5-.8-2.9-.7l-6.5-1.3c-2.3.3-5-.6-7.8-2.5-2.8-2.1-4.8-4.5-6.2-7-1.2-2.5-2.1-6.1-2.8-10.8-1.4-9.9.1-18.7,4.6-26.6,1.7-2.9,3.9-5.3,6.1-7.3,2.5-1.8,4.6-3.7,6.5-5.7,1.8-1.9,4-3.1,6.5-3.4,2.5-.4,4.9-.1,7.2.6,2.3.8,5,2.9,7.9,6.6.9,1.1,1.3,1.6,1.5,1.6.3,0,.5-.2.5-.6.2-.4.2-5.6.3-15.4.1-10.1,1.3-15.1,3.9-15.5,1-.1,2.1,0,3.1.3,1,.4,1.9.6,2.3.5.5,0,.9-.5.9-1.3.2-.7.3-1.9.4-3.4.2-1.6.4-2.4.7-2.8l5,2.9ZM727.5,530.5c-1.1,1-1.6,1.6-1.5,1.9s.5.2,1.3,0c.8-.3,1.7-.8,2.7-1.8,1-.8,1.5-1.5,1.5-1.6,0-.1-.5-.2-1.1-.1-.7,0-1.6.6-2.7,1.5ZM728.3,566.7c.8,5.5,2,8.1,3.8,7.8,4.2-.6,8.9-8.1,13.8-22.6l1.5-4.3-1.5-1.7c-2.5-3.1-4.7-4.6-6.4-4.4-4.5.6-8,4.4-10.4,11.1-1.3,3.8-1.6,8.5-.8,14.1Z"/>
  </g>
  <path class="st38" d="M847.9,636.7c-4.3-2.5-9.6-2.4-14.6-2.4-22,.4-44.1.7-66.1,1.1,13.2-6.2,28.1-9.2,42.8-8.5,0-3.8,0-7.6,0-11.3-60.4,3.7-120.6,10-180.3,19-48.4,7.3-96.4,16.3-144.4,25.4-39,7.3-77.9,14.7-116.9,22-74.8,14.1-150.5,28.4-220.4,56.8-1.8.4-3.6,1.1-5.4,1.7-17.4,5.8-34.5,12.4-51.2,19.8.6,3.5,1.3,6.9,1.9,10.4,15.9-.6,31.8-1.2,47.7-1.8,1.8,0,3.7.2,5.5.3-18.9,3.8-37.8,7.7-56.7,11.5.6,6.4,2.7,12.7,6.1,18.3,41.4-15.4,81.4-34.7,125.1-42,51.7-8.6,103.4-17.3,155.2-25.9,3.7-.6,8.4-4.2,5.6-6.5-24.2.2-48.4,2.6-72.2,7.2,179.1-36.3,360.2-63.9,542.3-82.7,3-3.8.4-9.7-3.9-12.2Z"/>
  <path class="st24" d="M116.6,757.2s78.2-36.1,127.1-44.9c48.9-8.8,137.6-24.9,201.6-37.8,64-12.9,146.2-30.2,218-39.5,71.8-9.3,100.9-11.7,100.9-11.7l23.9-.6-38.2,12.3-107.4,13,191.5-7.4v6.8l-122.3,9.3-126.8,11.1-175.3,35.8-103.3,15.8-155,37.8-45.8,8,1.1-7,9.9-1Z"/>
  <polygon class="st24" points="143.7 761.5 372.2 710.3 354.7 720.1 300.3 732.5 354.1 727.6 163.2 766.4 102.3 792.3 99.8 786.2 148.3 768.9 130.8 765.2 143.7 761.5"/>
  <g>
    <path class="st15" d="M484.9,656.3c0-.3-.4-.4-.9-.3-.6,0-1.9.8-3.7,2.2-6.2,4.4-8.7,10.7-7.5,18.9.6,4,1.3,6.1,2.3,6.5,1,.4,2.1.4,3.2.3l11.6-3.2c2-.3,3.5.1,4.6,1,1.1,1.1,1.8,2.2,2,3.4.4,2.9-1.1,5.6-4.5,8-3.4,2.5-6.2,3.9-8.3,4.2-2.3.3-3.9.3-4.8.3-1-.3-2-.5-2.9-.7-1-.3-2.3-.5-4.1-.5-1.7-.2-4.1-.9-7.1-2.4-4.7-2.3-7.5-6.8-8.5-13.6-1.8-13,1.5-23,10.2-29.9,1.6-1.3,3.8-3.1,6.4-5.5,2.8-2.3,5.8-3.7,9.6-4.2,3.5-.5,6.4-.2,8.1.9,1.8,1.2,2.7,1.6,2.6,1.3-.1-.3,0-.4,0-.4.3.2.6.8,1,1.9l1.1-1.4c.9-1.2,1.6-1.6,1.9-1.3.5.3.8.6,1.2.8.4.4.6.4.8.3.4.6.8,1.3,1.1,2.1.3.8.6,1.3.9,1.5.3,0,.5.6.6,1.4.1.7-.5,3.3-1.9,7.7-1.3,4.2-2.4,8.4-3.2,12.6-.8,3.9-1.7,6.4-2.7,7.1-.2,0-.9-.3-1.9-.8-1-.5-2.3-.7-3.6-.9-1.5,0-2.7-.8-3.7-2.2-1.2-1.5-1.8-3.1-2.1-4.8-.3-1.8,0-3.8.9-6.2.7-2.3,1.2-3.7,1.1-3.9ZM479,643.1c-1.3.3-2.4.9-3.2,1.5-.8.8-1.2,1.2-1.2,1.4,0,.2.1.3.5.3s1.3-.6,3.2-1.6c1.9-1.1,2.8-1.8,3-2.1-.1,0-.9.1-2.3.5ZM489.9,681.4c0-.4-.9,0-2.5,1.1h.5c1.1-.2,1.8-.7,2-1.1ZM497.3,644.3c.4-.6.6-1.1.4-1.4-.2-.4-.6-.2-1.3.6-.5.8-.8,1.3-.5,1.5.5.3,1,0,1.4-.6Z"/>
    <path class="st15" d="M544.8,636.9c0-.1,0-.2.2-.2.7.2,2,1.7,4.4,4.7,2.1,3,3.5,6.2,4,9.7v.4c1.3,9.1-1.5,19-8.5,29.7-4.6,7-9.2,10.9-13.8,11.5-1.4.2-3.4,0-6.1-.7-2.5-.7-4.7-1.1-6.4-1.5-1.7-.2-4.2-1.8-7.3-4.9-3.1-3-4.9-5.9-5.3-8.9-.9-6.2,0-12.6,2.8-19.2,2.8-6.5,6.6-11.4,11.3-14.9,1.6-1.2,2.9-2.1,3.6-2.9,2.6-2.7,5.8-4.3,9.5-4.9,3.7-.5,6.6,0,8.7,1.2,1.9,1.3,3,2,3,2q.2,0,.2-.1l-.5-1ZM531.8,683.6c0,.1.9,0,2.5-.1,1.6-.2,4.1-2.6,7.5-7.1,3.5-4.5,4.9-9,4.3-13.2-.6-4.3-1.8-7.6-3.8-10-1.9-2.4-3-3.5-3.6-3.4-.1,0-.2,0-.5,0-.2,0-.6,0-1.2.5s-1.6.7-3.2.9-3.3,1.6-5.4,4.2c-5,6.6-7.1,12.9-6.2,19.1.2,1.5.7,2.8,1.5,4.1.9,1.1,1.4,2,1.4,2.5.2,1.4,2.2,2,6,1.8.5,0,.8,0,.9,0l-.3.7ZM528,638.7c0-.2.1-.4.1-.6q0-.1-.2,0s-.4.3-1,.8l-.8.8h.9c.5-.3.9-.5,1-.9Z"/>
    <path class="st15" d="M618.8,630.9c-.1,0,.6-.7,2.2-2.2,1.6-1.6,2.8-2.4,3.7-2.5.9-.1,1.6-.1,1.9,0,.3,0,.9.3,1.4.7.7.3,1.1.4,1.4.3.3-.3.5,0,.8.2l.4,1c.3.3.5.5.8.4.3-.1.8.1,1.3.8.4.7.7,1.2.8,1.5,0,.3.5,1.1,1.2,2.3.7,1.2,1.4,3.8,2,8l1.9,15.6c.6,4.5,1.3,7.6,1.9,9.5.7,1.8,1.1,3.2,1.3,4.4.2,1.1,0,2-.4,2.9-.5.7-1,1.5-1.3,2.2-.3.7-.7.8-1.3.3-.6-.3-.9-.6-1.4-.6-.2,0-.9,0-1.8-.5-.9-.3-2.3-.4-4.1-.4-3.2.1-5.8-2.5-7.8-7.6-.5-1.1-.9-3.1-1.3-6l-1.7-13.9c-.3-2.3-.6-3.5-.8-3.6-.3,0-1,.6-1.8,1.5-4.5,4.8-9,12.4-13.2,22.9-2,5.1-3.3,7.6-3.7,7.6-.3.1-.7,0-1.2-.4s-.8-.5-1.2-.5c-.2,0-.9-.2-1.8-.7-.9-.4-1.6-.6-2.1-.4-.5.2-.9.2-1.5.3-.4,0-1.6-.5-3-1.7-1.6-1.1-2.6-3-2.9-5.5l-1.2-13.4c-.1-.8-.3-1.2-.4-1.2-.9.1-2.2,2-3.8,5.6-1.6,3.5-2.8,6.6-3.5,9-.7,2.3-1.1,4.7-1,7.2,0,2.5-.2,4.2-.3,5.1-.3,1-.5,2.2-.8,3.5-.1,1.4-.6,2.5-1.3,3.6-.7,1.1-1.3,1.4-1.7,1.1-.4-.4-.9-.6-1.6-.6-.5-.1-1.1-.4-1.6-.7-.4-.4-.9-.5-1.3-.3-.6,0-1,.1-1.6.2-.5.2-1.4-.3-2.8-1.3-1.5-1-2.5-3.3-3-6.8-.5-3.5-.8-6.9-.8-10.1,0-3.1,0-8.1,0-14.9,0-6.8,0-11.7,0-14.4-.2-2.9.1-5,.8-6.5.7-1.5,1.4-2.2,1.9-2.2.5,0,1.6,0,3,.5l1.7.6.3-1.3c.2-1,.3-1.9,0-3.1-.3-1-.2-1.6,0-1.7.3,0,.9.5,2,1.3,1.1.8,1.8,1.2,2.3,1.3.5,0,.9.3,1.1,1.1.3.9.9,1.9,1.5,3.1.8,1.2,1.3,2.9,1.6,5.3.3,2.4.5,4.7.4,7.3,0,2.3,0,3.8,0,4.3v.6c.4-.2,1.1-1.5,2.7-4.2,1.3-2.5,2.6-4.1,3.5-4.6.9-.6,1.7-.8,2.3-.7.7,0,1.4,0,1.9,0,.6,0,1.4-.6,2.4-1.5s1.2-1.7.8-2.1c-.5-.3-1.2-.1-2.1.5l-1.2.7,1-1.2c.7-.6,1.2-1,2-1.1.7,0,1.6.2,2.7.8,1,.6,1.6.6,1.5.3,0-1.2,0-1.2.6,0,.4,1.1.8,1.7,1,1.8.9-.1,1.6.3,2,1.2.5,1,1.1,2.3,1.8,4,.9,1.6,1.5,3.6,1.8,6.1.4,2.6.7,3.9.8,4,.2-.1,2-3.3,5.6-9.2,3.4-6,5.8-9.6,7.3-10.8,1.4-1.2,2.5-1.8,3.4-2l1.9.2c.7-.1,1.6-.7,2.8-1.6,1-.9,1.6-1.6,1.5-2,0-.3-.3-.5-.7-.4l-6.1,3.9Z"/>
    <path class="st15" d="M657.9,598.1c.3,0,.5.3.8,1.1,0,.6.7,1.7,1.3,3.2.8,1.4,1.3,3,1.5,4.8l.3,29.7h.2c.1,0,1.3-1.4,3.6-4,2.3-2.6,4.3-4.5,6.3-5.8,2-1.2,4.9-2.3,8.8-3.2,0-.1.2-.2.2-.3h-.1c0-.2.2-.2.3-.2h.5c.3-.1.4-.2.5-.5,0-.1.6-.5,1.4-.8,1-.6,1.4-.8,1.4-.8,0-.2-.6-.1-1.5,0l-4,.6c1.4-.9,3-1.5,4.7-1.7,1.8-.3,3.5.1,5.2,1.2,1.7.9,2.5,1.4,2.8,1.4,0,0,0-.1,0-.4,0-.3,0-.4,0-.4.2,0,.3.2.7.4.3.4.7.9,1,1.3.4.6,1,1.1,1.6,1.8.6.7,1.5,2,2.5,4.2,1.1,2.2,1.7,4.3,2,6.3,1.6,11.4-1.1,20.2-7.9,26.3-3.9,3.4-7.2,5.3-10.1,5.7-2.8.4-5.3.3-7.4-.3-2.1-.5-4.7-1.1-7.9-1.7-3.2-.6-5.3-1.5-6.4-2.5-1-1-1.7-1.6-2-1.5l-.4.2-1.9-.7c-.3,0-.8-.3-1.1-.5-.5-.4-.9-.4-1.4-.3l-.9.2c-.6,0-1.4-.2-2.3-1.1-1-.8-1.7-1.8-2.2-3.1-.5-1.3-1-2.3-1.3-2.9-.3-.8-.7-2.5-1.1-5.3-.4-2.8-.4-16.3,0-40.7,0-4.6.7-6.9,2-7.2l3.7.6c.5,0,1.1-.5,1.5-1.3.5-.7.8-1.4.7-2.1l-.7-1.9c0-.2,0-.3.2-.3l2.3,1.4c.3,0,.6.4,1.1.8.3.6.7.7,1.1.7l.7-.2ZM663.1,653.5c.3,0,.7-.1,1.3,0l-.9-.9c-.6-.7-1-.9-1.4-.9-.2,0-.5.4-.6.8-.1.7-.2,1-.1,1.3,0,.3,0,.4.4.4l1.4-.6ZM675.5,653.3c2.4-.3,4.1-.9,5.2-1.7,2.9-2.6,3.9-7.2,2.9-13.8-.4-2.6-.9-4.3-1.7-5.2-.1,0-.4,0-.8,0-.5,0-1.1.3-2.1.5-6,2-10.8,5.2-14.6,9.6-1.7,2.1-2.7,3.7-2.7,4.5,0,1.1,0,1.7,0,2.1l.2,1.4,3.4,1.1c4.2,1.3,7.6,1.8,10,1.4Z"/>
    <path class="st15" d="M743,608.7c0-.1,0-.2.2-.2.7.2,2.1,1.7,4.4,4.7,2.1,3,3.5,6.2,4,9.7v.4c1.3,9.1-1.5,19-8.5,29.7-4.6,7-9.2,10.9-13.8,11.5-1.4.2-3.4,0-6.1-.7-2.5-.7-4.7-1.1-6.4-1.5-1.7-.2-4.2-1.8-7.3-4.9-3.1-3-4.9-5.9-5.3-8.9-.9-6.2,0-12.6,2.8-19.2,2.8-6.5,6.5-11.4,11.3-14.9,1.6-1.2,2.9-2.1,3.6-2.9,2.6-2.7,5.8-4.3,9.5-4.9,3.7-.5,6.6,0,8.7,1.2,1.9,1.3,3,2,3,2q.2,0,.2-.1l-.5-1ZM730,655.5c0,.1.9,0,2.5-.1,1.6-.2,4.1-2.6,7.5-7.1,3.5-4.5,4.9-9,4.3-13.2-.6-4.3-1.8-7.6-3.8-10-1.9-2.4-3-3.5-3.6-3.4-.1,0-.2,0-.5,0-.2,0-.6,0-1.2.5-.6.4-1.6.7-3.2.9s-3.3,1.6-5.4,4.2c-5,6.6-7.1,12.9-6.2,19.1.2,1.5.7,2.8,1.5,4.1.9,1.1,1.4,2,1.4,2.5.2,1.4,2.2,2,6,1.8.5,0,.8,0,.9,0l-.3.7ZM726.1,610.6c0-.2.1-.4.1-.6q0-.1-.2,0s-.4.3-1,.8l-.8.8h.9c.5-.3.9-.5,1-.9Z"/>
  </g>
  <g>
    <g>
      <g>
        <path class="st10" d="M307.8,653.9s-11.7,25.7-3.3,28.1c8.4,2.4,24.6-3.4,34.8-6.5,10.3-3.2,23.4-5,28.8-4.8,5.4.2,9.8-.4,15.1,6,5.3,6.4,6.8,10.7,4.8,15.4-2,4.7-9.8,6.7-9.8,6.7,0,0-1.7,7.4-5.7,10.6-4,3.2-9.8,6.7-28.1,3.8-18.3-2.9-48.5-14.8-53.9-15-5.4-.2-10.4,2.3-12.8,4.4-2.4,2.1-7.1,7.2-14.4,5.5-7.4-1.7-7.7-16.8-3.6-20s14.8-2.9,18.8-6.1c4-3.2,6.6-30.4,6.6-30.4l12.8-4.4,9.8,6.7Z"/>
        <path class="st12" d="M380.4,708.3s-10.9,5.2-14.6,4.7c-3.6-.5-6.1-5.5-6.6-9-.5-3.5,4.7-11.4,5.6-11.5s7.4,1.7,11.5,5.6c4.1,3.9,4.8,9.2,4.8,9.2l-.8,1Z"/>
        <path class="st10" d="M242.2,657.5s4.3,18.2,0,26.8c-4.2,8.6-16.4,23.7-45.1,29.4-28.7,5.7-31.4,12.3-32.8,15.2s-3.4,1.4-1.6,8.3c1.8,6.9,5.8,9.9,12.1,10,6.3,0,13.7-4.5,13.7-4.5,0,0,2.3,10.4,5.3,12.7s15.6,3.2,20.2-2.8c4.5-6,20.4-34,31.4-38.2,11-4.2,29.9-3.2,32.4-4.4,2.5-1.2-1.9-20.3-10-21-8.1-.7-9.1-1.4-8.5-16.7.6-15.3-.6-24-.6-24l-7.7-4.3-12.5,6.4,3.7,7.3Z"/>
        <g>
          <path class="st16" d="M172.9,710.3c.8-3.5,2.7-6.8,5.4-9.2-24.3,24.4-54.1,43.3-86.5,54.9,4.4-6.3,10.1-11.7,16.6-15.8-5.6,5-12.4,8.4-19.2,11.5-20.6,9.2-42.1,16.1-64.2,20.6-3.5.7-7.7,1.2-10.1-1.4,8-7.1,18.5-10.4,28.5-14.1,44.7-16.3,85.6-42.7,118.8-76.7,7.2-7.3,14-15,22.1-21.3,9.4-7.2,20.3-12.5,31.8-15.2,7.5-1.8,17.8-3.1,24.7,1.5,6.2,4.2,2.7,11.3-1.2,15.8-11.1,12.9-27.5,23.4-41.3,33.1s-16.7,11.2-25.3,16.3Z"/>
          <path class="st16" d="M44.9,741.8c8.4-.6,16.6-3.6,23.3-8.6-13.2,7-26.4,14-39.7,21.1,4.3,2.4,9.5,1.7,14.3.5,8.6-2.1,16.9-5.3,25.1-8.7,38-15.8,74.4-35.8,108.2-59.4,15.4-10.8,30.8-22.7,40.8-38.9,6.5-10.5,4.2-15.3-7.5-18.6-6.1-1.7-12.7-3.1-19-1.4-14.3,3.9-25.4,20.9-35.5,30.7-15.5,15.2-32,29.5-49.2,42.8-19.3,14.8-39.6,28.4-60.7,40.6Z"/>
          <path class="st18" d="M201.9,689.9c-.2-3.4,1.1-6.9,3.4-9.5-5.9,6.9-12.3,13.4-19.2,19.4,1.5-4.2,2.9-8.3,4.4-12.5-19.7,21-44.3,37.4-71.2,47.5,1.7-3.1,4-5.9,6.8-8.1-15.4,8-31.5,14.7-48.1,20,.7-2.2,2.6-3.7,4.5-5.1,4.8-3.6,9.7-7.2,14.5-10.8-12.6,12.2-28.9,20.4-46.2,23.1,3.5-4.4,8.6-7.2,13.5-9.9,40.6-22.4,79-48.6,114.6-78.3,7-5.8,14-11.9,22.1-16.1,6.7-3.5,25-12,29.9-2,4.8,9.7-6.9,19-12.6,25-2.8,3-5.7,5.9-8.5,8.9-1.3,1.3-8,6.8-7.9,8.3Z"/>
          <path class="st6" d="M150.8,654.6c6-5.5,11.8-11.2,17.4-17.1,4.9-5.1,9.7-10.3,14.4-15.6,3.8-4.3,7.8-11.1,13.9-12,9.8-1.4,24.2,13.1,27.9,21.1,1.3,2.9,1.7,6.1,1.6,9.3-.1,4.6-1.2,9-3,13.2,1,0,1.9.1,2.9.3,5.8.8,13.3.1,8.7,7.7-1.6,2.7-3.5,5.2-5.5,7.6-1.1,1.4-5.6,4.7-5.9,6.3.4-2.1.8-4.1,1.2-6.2-4.7,5.7-11.1,10-18.1,12,.4-1.4.8-2.8,1.2-4.2-3.2,3.1-6.8,5.8-10.7,8,.8-2,1.5-4.1,2.1-6.2-2,1.1-4,2.2-6,3.2,1.8-2.9,3.2-6,4.4-9.2-5.1,3.3-10.5,6.1-16.1,8.4,1.5-2.4,3-4.8,4.5-7.1-4.4,2.2-9.2,3.6-14.1,4,3.1-3.2,5.7-7,7.5-11.1-4.4,2.2-9,3.9-13.7,5.3,3-3.9,5.6-8,7.9-12.3-3.5,1.7-7.3,3.1-11.1,4.2,1.9-3.2,3.9-6.4,5.8-9.6-3.3,1.4-6.8,2.2-10.4,2.4.8-1.2,1.6-2.4,2.4-3.7-3,.9-6.2,1.3-9.4,1.3Z"/>
          <path class="st18" d="M58.1,734.3c3.4,1.7,7.5.1,11-1.5,8.9-4.2,17.5-8.9,25.7-14.2-1.1,2.5-3.7,4-6.1,5.3-12.5,6.7-25.2,12.9-38.2,18.7-4.1,1.8-8.5,3.9-10.6,7.8,8.6.3,16.8-3.3,24.6-7,34.7-16.6,68-36.1,99.4-58.2,7-4.9,14-10,20-16.1,4.4-4.5,8.2-9.4,11.4-14.8,1.2-2,2.3-4.3,2-6.6-.2-1.6-1.2-3.1-2.4-4.2-2.6-2.4-6.5-3.1-10-2.7-8.7,1-16.4,5.4-21.7,12.3-6.3,8.2-14.3,15.5-21.9,22.5-16,14.9-33.3,28.4-51.6,40.3-5.2,3.4-10.4,6.6-15.7,9.7-2.7,1.6-5.4,3.1-8.1,4.6-1,.6-6.9,4.6-7.8,4.2Z"/>
          <path class="st6" d="M189.2,610.4c-7.6,13.4-17.8,25.1-28.8,35.9-1.1,1.1-2.2,2.2-2.7,3.7-1.3,3.9,3.2,7.6,7.2,7.4,4-.2,7.5-3,10.5-5.6.7,6.2-7.6,11.5-5.3,17.3,1.8,4.5,8.2,4.5,12.9,3.2,17.7-4.6,33.7-14.4,47.5-26.4,13.8-11.9,25.7-26,37-40.3,6.6-8.3,13.1-16.7,19.2-25.4,9.7-13.8,18.8-30.4,14.6-46.7.8,3.2-52,22.2-57.2,23.8-9.9,3.1-20.1,5.6-30.4,6.9-11.6,1.5-11.2,4.4-13.1,15.2-1.9,10.9-6,21.3-11.5,30.9Z"/>
          <path class="st8" d="M169.9,642.1c4.2-4.2,8.1-8.7,11.6-13.4,3.1-4.2,6-8.5,8.7-13,2.2-3.7,3.8-10.1,6.9-13.1,2.8-2.7,8,.4,10.6,2.3,3.4,2.5,6.1,6,7.3,10.1.5,1.7.7,3.5.8,5.3,11.3,4.3,18.4,17.9,15.1,29.6-3,10.7-12.6,18-21.6,24.4.6-2.5,1.2-5,1.9-7.6-2.7,1.7-5.6,3.1-8.6,4.3.9-2.5,1.7-4.9,2.6-7.4-3.4,1.9-6.8,3.8-10.2,5.7,1.9-3.1,3.8-6.3,5.7-9.4-3.6,2.4-7.8,4-12.1,4.7.6-.7,1.1-1.4,1.7-2.2-1.1.8-2.3,1.5-3.7,1.6-1.7,0-3.6-1.5-3-3.2-1.8,1.7-4.3,2.8-6.8,2.8,1.8-6.8,3.2-13.7,4.3-20.7-2.8,2-5.9,3.7-9.1,5,.2-2,.9-4,2.1-5.7-1.1,1.5-3,2.4-4.9,2.3-.4-.8.3-1.7,1-2.3Z"/>
        </g>
        <path class="st13" d="M415,534.7c-6.5,14.4-13.5,28.6-21.1,42.5-10.2,18.8-22,37.7-40.3,48.7-6.1,3.7-12.8,6.4-18.2,11-8.5,7.3-12.8,18.6-21.6,25.4-2.3-2.4-3.8-5.5-4.2-8.8-.8,2.6-1.5,5.2-2.3,7.7-2.6-1.2-4.7-3.3-5.9-5.9-.7,3.1-1.1,6.4-1.1,9.6-3.4-1.3-6.2-4-7.8-7.2-2.3,3.4-5.2,6.4-8.6,8.7-1.7-4.5-2-9.5-.7-14.1-7.7,5.7-13.1,14.3-14.8,23.7-1.8-2.2-3.7-4.5-5.5-6.7-2.3,4.3-5.5,8-9.4,10.8.2-2.6.3-5.1.5-7.7-2.2,3.5-5,6.6-8.1,9.2-.4-6.8-.8-13.6-1.2-20.4-3.5,4.8-6,10.3-7.4,16.1-2.3-5.3-3.9-11-4.8-16.7-1.5,6.1-2.6,12.3-3.4,18.5-6.9-7.8-12.4-16.9-16.3-26.6-.4,4.2-.8,8.4-1.3,12.6-18.8-37.4-19.1-83.6-.8-121.3,3-6.2,6.5-12.2,11.1-17.3,9.8-10.9,23.9-16.9,37.9-21.1,31.1-9.4,64.3-11.6,96.4-6.4,6.3,1,12.6,2.4,18.3,5.3,7.8,4,13.7,10.7,19.5,17.2,5.9,6.6,12.1,14.3,11.6,23.1"/>
        <path class="st17" d="M228.5,372.1c-16.5,4.6-28.2,19.2-36.6,34.1-8.3,15-14.5,31.3-25.6,44.4-7.8,9.3-17.8,16.6-25.7,25.8-11.9,13.8-18.8,34.3-10.1,50.3,6.9,12.9,22.8,21.2,24.1,35.8.3,3.2,0,6.8,2.2,9,2.4,2.4,6.5,1.8,9.7.6,7-2.6,13.2-7.4,17.6-13.5,2.1,8.3,3.1,16.8,3.1,25.3,13.1-4.3,24.7-13,32.5-24.4,3.7,5.7,7.3,11.3,11,17,1.7,2.7,3.6,5.5,6.5,6.9,4.4,2.1,9.6,0,13.7-2.6,14.9-10,21.6-29.6,18.9-47.2s-13.8-33.3-27.8-44.5c-1.9-1.5-3.9-3.1-5-5.3-3.3-6.9,4.7-13.6,11.8-16.5,7-2.8,15.8-6.8,15.8-14.4,0-2.8-1.4-5.5-2.2-8.2-3-10,2.8-19.9,11.4-24.8-8.1-10.1-2.7-22.3-7.9-33-6.3-12.9-24.2-18.5-37.3-14.8Z"/>
        <path class="st8" d="M363.3,608.5c-12.9,8.8-29.5,12.8-38.8,25.3-.2-1.3-.4-2.5-.5-3.8-5.2,3.5-9.3,8.6-11.6,14.5-1.1-3.8-1.8-7.7-2.1-11.7-4.2,3.8-7.8,8.1-10.8,12.9-.7-2.6-1.4-5.1-2.1-7.7-4.2,3.6-8,7.8-11.3,12.2-1.3-5.3-2.2-10.7-2.8-16.1-8.3,6.7-15.3,14.9-20.6,24.1-.4-3.5-.8-7.1-1.3-10.6-3.9,5-7.8,9.9-11.7,14.9-2.3-6.5-4.5-13-6.8-19.5-3.1,4.5-5.7,9.4-7.7,14.5-.7-3.7-1.5-7.4-2.2-11.2-1,1.3-2,2.6-3,3.9-.7-1.6-1.5-3.1-2.2-4.7-1.4,1.4-2.6,3-3.4,4.8-.9-1.7-1.8-3.4-2.7-5.1-1.6,3.2-2.7,6.7-3.3,10.2-4.9-5.8-8.2-13-9.5-20.5-1,2.2-1.9,4.4-2.9,6.6-8.3-23.7-7-50.6,3.6-73.3,2-4.4,4.5-8.6,7.9-12,5.5-5.2,13.2-7.5,20.7-9,13.5-2.6,27.3-3.1,40.9-1.3,13.4,1.7,26.6,5.5,40,4.7,12-.7,23.4-5,35-8.4,15.8-4.6,44.9-8.8,41.8,16.6s-17.8,39.4-32.6,49.5Z"/>
        <path class="st16" d="M416.9,338.6c8.4-20.6,15.2-42.8,30.8-58.8,6.6-6.8,14.5-12.2,22.5-17.2,56.3-35.6,120.6-58.5,186.7-66.4,5.8-.7,13.5-.2,15.3,5.4,1.6,5-3.1,9.8-7.6,12.6-22.5,14.2-52.2,17.3-70.1,36.9,17.3-2.6,34.7-5.3,52.1-4.4,17.4.8,35.1,5.4,49.1,15.9,3.5,2.7,7.1,6.7,6,11-1.4,5.2-8.1,6.3-13.4,6.3-27.6.4-55.2.9-82.8,1.3,6.1,11.9,22.5,11.9,35.6,13.9,14.2,2.1,27.7,8.4,38.4,17.9,2.9,2.6,5.8,5.9,5.3,9.7-.6,4.2-4.9,6.7-9,8-23.7,7.4-48.6-6.6-73.5-7.5-4.3-.2-9.3.5-11.3,4.2,7.7,9.2,20.2,12.3,31.9,15,13.5,3.1,27,6.2,40.5,9.3,2.3.5,4.9,1.4,5.5,3.6.3,1.3-.1,2.6-.7,3.8-6.7,14.6-25.7,18.1-41.8,17.8-17.9-.3-35.8-2.9-53-7.7,7.6,12.4,30,11.8,33.8,25.9-22.5,7.1-46.8,8.5-70.1,4.1,5.6,4.1,11.3,8.3,16.9,12.4,1.1.8,2.3,1.7,2.9,3,1.2,2.6-.8,5.8-3.4,6.9-2.6,1.1-5.6.7-8.5.2-10.6-2-20.9-5.4-30.5-10.1,6.5,6.6.7,18.8-8,21.8-8.8,3-18.3-.2-27-3.4,2.5,3.3-2.4,7.2-6.5,8.2-11.6,2.8-24,2.1-35.2-1.9-5.4,7.6-16.8,6.9-26,5.4-18.7-3.1-54.2-15.7-40.7-41.6,4.9-9.3,15.7-15.9,22.7-23.5,10.1-11,17.1-24.1,22.8-37.9Z"/>
        <path class="st18" d="M646.5,199.7c2.9-.7,6.6-1.1,8.3,1.4,2.5,3.6-2.2,7.7-6.1,9.6-15.3,7.5-30,16.3-43.8,26.3-7.1,5.1-14.4,11.2-16.3,19.7,11.7-.2,23.4-1.4,34.9-3.6,7.7-1.4,15.4-3.3,23.1-2.6s15.8,4.5,19.2,11.5c-24.6,3.9-49.1,7.7-73.7,11.6-2.2.3-4.8,1-5.5,3.1-.8,2.3,1.3,4.5,3.2,6.1,7.9,6.6,16,13.4,25.7,17.1,9.5,3.6,20.2,4.2,28.9,9.4,2,1.2,4.1,3.3,3.4,5.5-.7,2.1-3.4,2.5-5.5,2.6-20.9,1.1-41.9.8-62.8-.8-3.8-.3-7.7-.6-11.2.8-3.5,1.4-6.5,5-5.9,8.7.7,3.9,4.9,6.1,8.6,7.7,13.2,5.8,26.4,11.5,39.6,17.3,1.5.6,3,1.3,3.9,2.7,2.6,3.7-1.6,8.6-5.9,10.4-21.1,8.6-44.9-10.6-67.1-5.4-1.1.2-2.2.6-2.7,1.6-.9,1.5.3,3.3,1.5,4.5,4.9,4.5,12,5.7,18.1,8.4,6.1,2.7,12,8.8,10.2,15.3-22.7-1.1-45.4-2.2-68.2-3.3,3.8,10.5,22,5.8,28.6,14.8-7.2,3.2-15.6,3.5-23,.8,5.3,5.9-.8,16.2-8.6,17.7-7.8,1.5-15.5-2.5-22.5-6.4-.7,9.1-9.7,16.8-18.8,15.9-2.8-.3-5.5-1.2-8.3-1.1-3.8.1-7.2,2.1-10.5,3.8-18.8,9.7-41,12.9-61.8,8.9-2.3-.4-5-1.4-5.4-3.7-.2-1.3.4-2.6,1-3.8,19-35.5,46.8-65.6,66.6-100.7,4.5-8,8.5-16.2,13.2-24,14.3-24.1,34.4-44.6,58-59.7,24.5-15.7,53.8-22.9,81.3-31.9,18.5-6.1,37.3-11.4,56.3-16Z"/>
        <path class="st34" d="M536.2,230.8c26.2-14.1,54.9-23.7,84.4-28.2,2.4-.4,5.3-.6,6.9,1.2,2.7,2.9-.3,7.5-3.3,10.3-12,11.2-24,22.4-35.9,33.7-2.2,2-4.5,4.6-4,7.5.7,3.9,5.6,5,9.6,5.3.7,4.5-2.3,9-6,11.6-3.7,2.7-8.2,4.1-12.3,6.1-1.6.8-3.3,1.9-3.7,3.6-.7,2.9,2.5,5.2,5.2,6.5,4.6,2.2,9.2,4.4,13.8,6.6,2.9,1.4,6.2,3.2,7.1,6.3,1.5,5.7-5.7,9.7-11.6,10.3-14.5,1.7-30.8-1.9-42.5,6.9,2.9.1,5.6,2.6,5.8,5.6.2,2.9-2.3,5.8-5.2,6.1,12.3,4,24.3,9,35.9,14.9-3.9,7.7-14.1,9.6-22.6,8.8-8.6-.8-17.4-3.3-25.6-.9-1.9.5-3.9,1.5-4.6,3.4-2.1,5.6,9.6,8.8,8.3,14.7-.8,3.9-6.2,4.2-10.2,3.9-16.9-1.2-34.2,4.4-47.2,15.2,7.2,3.5,15.2,5.5,23.2,5.7,1.9,2.7-2.4,5.8-5.7,5.3s-6.7-2.3-9.6-.9c-1.2.6-2.1,1.6-3,2.6-6.8,7.3-16.7,11.7-26.7,12-1,4.1-5.4,6.5-9.6,7.2s-8.5,0-12.7.7c-7.7,1.1-14.2,6.1-20.9,10s-14.9,7.1-22.1,4.4c-.9-.4-1.9-.8-2.5-1.7-1-1.4-.7-3.2-.4-4.9,9.2-48.2,42.5-87.6,70.1-128.2,8.2-12,16-24.4,26.6-34.5,13.4-12.7,30.3-20.8,46.9-28.8,22.7-10.9,45.5-21.7,68.4-32.3"/>
        <path class="st20" d="M596.3,213.6c1.4-.2,2.9-.3,4.1.4,2.1,1.4,1.6,4.5.8,6.8-6.1,17.5-21.4,31.6-39.5,36.1,4.5,10.1.4,23.2-9.2,28.8,4,4.7,2.5,12.4-1.6,17-4.1,4.6-10.2,7-16,9.2-.2,6.4-4.1,12.5-9.9,15.4,6.6,14.7.7,33.1-11.4,43.9-12,10.8-28.9,14.8-45.1,14.6-.2,4.6-3.7,8.8-8.1,9.9.5,10.3-9.2,17.7-18,23.2-12.3,7.7-24.7,15.3-38.2,20.5-9.3,3.6-19,5.9-28.9,7-1.8.2-3.8.3-5.4-.5-2.6-1.2-3.7-4.3-4.4-7.1-2.7-11-2.7-23.2,2.5-33.3,6.8-13.1,20.9-20.4,32-30,32.7-28.3,40.6-77.6,72.8-106.4,12.4-11,27.6-18.3,42.5-25.4,12.1-5.7,23.1-13.1,34.8-19,13.4-6.7,31.2-9.1,45.8-11.1Z"/>
        <path class="st30" d="M581.2,222.2c1.1,8.6-5.9,16-13,21-9.7,7-20.6,12.3-32,15.7,7.9,2.3,9.2,14.1,4,20.5-5.1,6.4-13.7,8.8-21.7,10.8,4.2,3.6,13.4-.6,15.1,4.7,1,3-1.9,5.7-4.6,7.3-7.6,4.6-16.1,7.5-24.9,8.5,5.5-1.2,10.8,4.8,10,10.4-.8,5.6-6.2,9.7-11.8,10.3,5.7.6,9.6,6.9,9.1,12.7-.4,5.8-4.1,10.8-8.3,14.8-11.8,11.4-29.1,16.8-45.4,14.2-1.5,8.7-10.5,15.4-19.3,14.4,2.1,4.1,1.6,9.3-1.2,12.9s-7.9,5.3-12.3,4.2c-2.1,7.5-10,11.7-17.2,14.9-4.9,2.2-10,4.3-15.3,4.6-5.4.3-11.2-1.6-14.1-6.1-3.3-5.1-2.1-12.1,1.3-17.2s8.4-8.8,13.1-12.6c18.8-15.3,34-35.1,43.8-57.2,7.9-17.8,12.8-37.5,25.5-52.2,14.3-16.6,35.6-22.3,53.2-34.1,4.9-3.3,64.8-30.2,65.8-22.3Z"/>
        <path class="st17" d="M561.9,224.6c-30.9,14.2-59.4,33.7-80.2,59-6.2,7.5-11.7,15.5-15.2,24.3-3.7,9.5-4.9,19.6-8,29.3-8.8,27.7-33.9,51-64.2,59.4-3.1.9-6.6,1.6-9.5.3-4.3-1.8-5.3-7.2-3.6-11.3s5.3-7.3,8.5-10.6c28.1-28.8,31.4-72.3,59.6-101,14.6-14.9,34.6-24.4,54.3-33.1,45.8-20.1,93.2-37.7,142.6-48.2,4.8-1,13.8-2.8,17,1.4-4.4,2.6-12.4,2.6-17.5,3.7-9.6,2.1-19.1,4.4-28.6,7-18.9,5.2-37.4,11.6-55.1,19.7Z"/>
        <path class="st6" d="M563.7,227.8c-30.5,14.1-58.6,33.6-79.2,58.8-6.1,7.5-11.5,15.5-14.9,24.3-3.7,9.5-4.8,19.6-7.8,29.3-8.6,27.7-33.4,50.9-63.4,59.3-3.1.9-6.5,1.6-9.4.3-4.2-1.8-5.2-7.2-3.6-11.3,1.6-4.1,5.2-7.3,8.3-10.6,27.7-28.8,30.9-72.2,58.7-100.9,14.4-14.9,34.1-24.3,53.6-33,45.2-20.1,92-37.5,140.7-47.9,4.8-1,13.6-2.8,16.8,1.4-4.3,2.6-12.2,2.5-17.3,3.6-9.5,2.1-18.9,4.3-28.2,6.9-18.6,5.2-36.9,11.5-54.4,19.6Z"/>
        <path class="st13" d="M242,313.5c3.8-22.2,13-44.2,29.7-59.3,16.7-15.1,41.7-22.1,62.6-13.7,20.3,8.1,33.4,28.7,39.4,49.7,4.1,14.2,5.6,29.2,4.5,43.9-.7,8.9-2.3,17.9-1.7,26.8,1.2,19.5,12.6,36.7,22.8,53.4,12.7,20.6,24.6,42.7,27.2,66.8,3.5,32.1-11.1,65.5-37,84.8-10.4,7.7-22.3,13.2-34.6,17.4-19.3,6.6-40,10-60.1,6.6-20.1-3.4-39.4-14.3-50.1-31.7-5.8-9.3-8.8-20.1-10.7-30.9-3-17.4-3.2-35.2-.4-52.6,4.5-27.8,17.1-56.2,11.5-84.7s-7.5-50.1-3-76.5Z"/>
        <path class="st8" d="M272.7,442.2c-2.7,16.9-3.6,34.5,1,50.9,4.7,16.5,15.7,31.8,31.5,38.3,13,5.4,27.8,4.5,41.8,2.2,14.4-2.3,29-6.2,40.4-15.4,14.5-11.7,21.7-31.7,18-50,10.2,1.8,13.5,14.7,13.8,25.1.4,13.7-.7,27.8-5.8,40.5-10.6,26.5-37.4,43.5-64.8,51.5-26.3,7.7-55,8.7-81.1,0-26-8.7-49.1-27.4-60.5-52.4-4.7-10.3-7.4-21.3-9.9-32.3-2.5-10.7-4.9-21.6-5-32.6-.2-22.4,9.3-44.5,24.7-60.8,10.5-11.1,48.1-40.7,64.9-31.3,13.9,7.8-7,53.5-9,66.1Z"/>
        <path class="st6" d="M274.3,387.9c5,7.1,7.3,15.8,8.9,24.4,1.3,7.1,2.3,14.4,1.9,21.6-.4,7.2-2.1,14.2-3.9,21.2-1.7,7-3.5,14-5.2,21.1-.3,1.3-.7,2.6-1.4,3.7-1.2,1.7-3.3,2.5-4.9,3.9-3.7,3.2-4,9-3,13.8,2.4,11.3,10,20.6,16.1,30.3,6.1,9.8,11.1,21.6,7.5,32.6-2.7,8.3-9.8,14.3-16.9,19.3-7.2,5-16.1,9.6-24.3,6.5-7.3-2.8-11.5-11-18.8-13.8-4.6-1.7-9.7-1-14.5-.3-12.2,1.8-25.9,3.2-35.6-4.3-10.5-8-12.2-23.2-10.3-36.3,2.8-20.2,11.8-38.9,16.5-58.7,3-12.3,4.3-25,6.2-37.5,1.5-10.1,3.4-20.1,5.6-30.1.9-4.2,2-8.5,4.7-11.8,1.1-1.4,2.5-2.5,3.9-3.6,19.2-15.2,49.9-27,67.5-2Z"/>
        <path class="st8" d="M255.9,305.4c1.6-6.5,3.2-13.1,6-19.2,4.4-9.5,11.6-17.8,20.5-23.3,2.6-1.6,5.3-3,7.3-5.3,1.6-1.8,2.6-4.1,3.8-6.2,6.4-10.5,20.3-14.9,32.4-12.3,12.1,2.5,22.2,10.8,29.8,20.5,6.7,8.7,11.7,18.8,14.5,29.4,7.8,29.4-.9,60.3-3.1,90.7-.6,8.5-.8,17.4-4.4,25.1-4.4,9.4-15.2,16.5-25.2,13.8-3.2-.9-6.1-2.6-8.9-4.5-9.6-6.5-18.2-14.6-25.1-24-4.9-6.7-10.6-14.9-18.9-14.6-5.6.2-10.2,4.4-15.6,5.8-8,2-16.6-2.6-21.2-9.4-6.3-9.4-5.8-17.3-2.1-27s7.1-26.5,10.4-39.6Z"/>
        <path class="st4" d="M313.5,249.8c-3.8,2.3-6.5,5.9-9.6,9.1-7.2,7.4-16.8,12.3-27,13.8-1.6.2-3.3.4-4.6,1.5-1.5,1.2-2,3.2-2,5.1-.1,6.9,4.7,12.8,7.4,19.2,2.4,5.5,3.3,11.4,4.7,17.2,8.2,33.7,35.8,62,69.3,71,10.2-14.1,18.4-31.1,16.3-48.4-1.1-9.2-5-17.7-8.3-26.4-6.3-17.2-7.1-35.9-13.1-52.9-3.9-11.2-22.8-15.5-33.2-9.3Z"/>
        <path class="st16" d="M153,553.9c.2,8.1-7.1,14.1-13.5,19.1-6.4,5-13,12.3-10.9,20.1,12.7,1.4,25.6-3.1,36.1-10.4-15.2,11.1-30.1,22.8-44.5,35,3,7.1,13.3,6.1,20.5,3.2,16.3-6.6,31.1-16.7,43.1-29.6-15.7,32.3-64.5,32.1-87.1,60,3.5,4.8,10.1,5.9,16,5.9,35.1,0,65.2-23.4,92.6-45.3,13.1-10.5,26.6-21.2,35.2-35.5,8.6-14.4,11.5-33.5,2.7-47.7-9.3-15-28.5-20.5-46.2-22.1-24.4-2.2-61.5,1.7-70.1,29-2,6.4-7.3,28.4-3.9,33.8,7.2,11.6,30.3-4.2,30-15.6Z"/>
        <path class="st18" d="M231.6,580.2c-11.5,12.3-24.3,23.4-37,34.4-5.6,4.8-11.2,9.7-17.5,13.4-12.2,7.2-26.5,10-40.5,12.6-1.8-2.7.9-6.2,3.6-8.1,10-7.5,21.7-12.4,32-19.4,10.3-7,19.6-17.1,21.1-29.5.2-1.6.3-3.3-.2-4.9-5.7,3.5-9.8,9-14.5,13.7-9.3,9.3-21.4,15.8-34.3,18.4-2.2-4.1.5-9.1,3.5-12.6,5.3-6.1,11.7-10.9,18.2-15.7,3-2.2,5.9-4.4,8.2-7.3s3.9-6.5,3.5-10.2c-8.1,5-12.8,14.7-21.4,18.9-3.9,1.9-8.2,2.5-12.5,3.2-.6,0-1.2.2-1.7,0-.9-.4-1.3-1.5-1.4-2.5-.4-6.8,7.1-12,7.2-18.8-2.8,1.7-5.8,2.9-8.9,3.6-1,.2-2,.4-2.9,0-.9-.3-1.6-1.2-2.2-2-3.1-4.5-4-10.3-3.5-15.8.5-5.5,2.2-10.8,3.9-16,1.7-5.2,3.7-10.8,8.4-13.5,2.5-1.4,5.4-1.9,8.2-2.2,18.4-2,37.8.9,53.6,10.5,4.9,3,9.5,6.6,13.9,10.4,6.8,5.7,13.5,11.7,18.7,19,2.4,3.3,4.6,5.7,2.8,9.7-1.8,4-5.3,7.6-8.2,10.8Z"/>
        <path class="st17" d="M275.1,540.9c.3,10.4.6,21.1-2.9,30.9-3.5,9.8-11.6,18.7-22,19.8-11.6,1.3-22.7-7.8-26.1-18.9-4,10.7-14,18.9-25.2,20.7-1.3.2-2.7.4-4-.1-1.6-.6-2.7-2.2-3.6-3.6-3.4-5.7-5.8-12-7.1-18.5-1.8,5.4-4.7,11.3-10.2,12.7-5.3,1.3-10.7-2.4-13.7-7-3-4.6-4.3-10.1-6.8-15-4-8.1-10.9-14.4-16.4-21.7-5.5-7.2-9.7-16.5-7.1-25.2.3-.9.7-1.9,1.4-2.6,1-.9,2.3-1.1,3.6-1.3,23.4-3.1,47.2-1.2,70.6,1.9,8.6,1.1,17.3,2.4,25.6,4.8,8.3,2.4,16.2,5.9,24.1,9.4,6.1,2.7,12.2,5.4,18.4,8.2"/>
        <path class="st20" d="M233.7,375.8c-16.5,4.6-28.2,19.2-36.6,34.1-8.3,15-14.5,31.3-25.6,44.4-7.8,9.3-17.8,16.6-25.7,25.8-11.9,13.8-18.8,34.3-10.1,50.3,6.9,12.9,22.8,21.2,24.1,35.8.3,3.2,0,6.8,2.2,9,2.4,2.4,6.5,1.8,9.7.6,7-2.6,13.2-7.4,17.6-13.5,2.1,8.3,3.1,16.8,3.1,25.3,13.1-4.3,24.7-13,32.5-24.4,3.7,5.7,7.3,11.3,11,17,1.7,2.7,3.6,5.5,6.5,6.9,4.4,2.1,9.6,0,13.7-2.6,14.9-10,21.6-29.6,18.9-47.2-2.8-17.7-13.8-33.3-27.8-44.5-1.9-1.5-3.9-3.1-5-5.3-3.3-6.9,4.7-13.6,11.8-16.5,7-2.8,15.8-6.8,15.8-14.4,0-2.8-1.4-5.5-2.2-8.2-3-10,2.8-19.9,11.4-24.8-8.1-10.1-2.7-22.3-7.9-33-6.3-12.9-24.2-18.5-37.3-14.8Z"/>
        <path class="st30" d="M219.6,377.8c-4.2,2.3-8.1,5.4-11,9.4-3.3,4.5-5.1,9.9-6.9,15.2-7.4,21.7-16.3,44.1-33.5,59.3-10.9,9.7-25.4,16.8-30.7,30.5-2.9,7.5-2.5,16-.8,23.9.9,4.3,2.2,8.6,4.7,12.2,2.8,4,6.9,6.8,9.8,10.7,2.9,3.9,4.3,8.7,5.9,13.3.9,2.6,2.2,5.6,4.9,6.4,1.5.5,3.2,0,4.7-.4,4.7-1.4,9.2-3.6,12.8-6.9,1.8-1.7,3.4-3.6,5.5-4.9s5-1.7,7-.3c1.9,1.4,2.4,4,2.8,6.3.7,4.5,1.3,8.9,2,13.4.2,1.3.6,2.9,1.8,3.4.8.3,1.8,0,2.6-.2,4.7-1.7,9-4.6,12.3-8.4,2.1-2.4,3.8-5.3,6.2-7.5,2.3-2.2,5.6-3.9,8.8-3.3,8.3,1.6,9.5,16.2,18,16.5,5.2.2,8.5-5.6,9.9-10.6,5.8-20.7-.1-44.3-15-59.9-2.5-2.6-6.1-5.2-9.5-4-3.4,1.2-4.5,5.5-4,9.1,1.5,10.7,12.3,19.3,10.7,29.9-3.9-1.1-5.8-5.7-9.5-7.4-3.9-1.8-8.5.2-11.7,3-3.2,2.8-5.5,6.5-8.8,9.3-2-6.7-5.1-14.5-12-16.2-4.6-1.1-9.2,1.1-13.6,2.8-4.4,1.7-9.6,3-13.5.4-4.9-3.3-4.7-10.6-3.1-16.3,2.3-8.3,6.3-16.1,11.6-22.8,6.9-8.6,16-15.3,22.1-24.5,12.6-19.1,10.2-45.7,24.6-63.5,6.7-8.3,16.9-13.8,27.5-15,15.5-1.7.2-7.5-7-8.2-8.7-.8-17.7,1-25.4,5.2Z"/>
        <path class="st17" d="M381,306.4c3.8,2.4,6.6,6.1,9.8,9.3,3.1,3.3,6.9,6.3,11.3,7,1.8.3,4.2.5,4.7,2.3.2.7,0,1.5-.2,2.2-2.1,6.3-7.9,11.1-14.3,12.9-6.4,1.9-13.4,1.1-19.7-1.2-4.3-1.6-8.5-3.9-11.5-7.3-3.8-4.3-5.5-10-6.1-15.7-.2-1.4-.2-2.9.2-4.3.7-2.4,2.7-4.3,5-5.4,5.9-2.8,15.2-3.3,20.8.2Z"/>
        <path class="st5" d="M382.4,316.1c2.1,3.4,5.4,5.9,9.2,7.1.6.2,1.3.4,1.7.9.6.9,0,2.1-.6,2.9-2.2,2.6-5.6,3.8-9,3.9-3.4.1-6.7-.8-9.9-1.9-1.9-.7-3.9-1.4-5.7-2.4-4.2-2.2-7.8-5.5-10.3-9.4-.8-1.2-1.5-2.7-1.2-4.1.2-.8.6-1.5,1.1-2.1,3-3.9,8.7-6.2,13.7-5.5,6.3.9,8,5.9,10.9,10.6Z"/>
        <path class="st29" d="M377.8,312.2c1.2,1.6,1.9,3.4,2.8,5.2s2.1,3.5,3.8,4.3c1,.5,2.4.9,2.6,2,.2,1.2-1.2,2.1-2.3,2.5-2,.8-4.1,1.6-6.3,1.5-2.7,0-5.1-1.4-7.4-2.8-2.4-1.5-4.7-3.2-6.3-5.6-.8-1.2-1.4-2.7-.8-4,.3-.6.8-1.1,1.3-1.6,3.6-3.4,8.9-6.4,12.7-1.6Z"/>
        <path class="st41" d="M376.7,317.2c.9,1.2,1.8,2.5,2.7,3.7.2.2.3.5.4.7,0,.4-.2.9-.6,1.1s-.9.3-1.3.2c-1.7-.2-3.1-1.2-4.3-2.4-1.2-1.2-6.1-6.6-3.9-8.3,2.7-2,5.9,3.4,7,4.9Z"/>
        <path class="st11" d="M339,278.9c-.3-8.6-4.2-16.7-4.2-25.3,0-1.5.1-3,.7-4.4.7-1.5,2-2.7,3.3-3.8,3-2.4,6.3-4.4,9.9-5.8,4.2-1.7,8.8-2.7,13.3-3.3,11.5-1.6,23.8-.8,33.8,5.1,9.7,5.7,16.4,15.7,19.2,26.6,2.8,10.9,2.1,22.4-.9,33.2-1.8-4.9-4.1-9.9-7.9-13.4s-9.7-5.4-14.4-3.3c-4.3,1.9-6.8,6.5-8.1,11.1-.7,2.4-1,4.9-2,7.3-2.4,5.7-8.5,9.7-14.7,9.5,1.2,4.4,2.3,8.8,4.5,12.7s5.5,7.5,9.7,9c4.4,1.6,9.4.8,13.6-1.3,4.2-2.1,7.7-5.4,10.8-8.9,2.4,2.6,2,6.8.9,10.1-3.7,10.9-14.5,18.9-25.9,19.4-11.5.5-22.9-6.6-27.6-17.1-1.7-3.7-2.7-7.9-5.6-10.7-3.2-3-8.2-3.7-11.4-6.8-5.1-4.9-4.2-13.2-1.6-19,2.9-6.4,4.9-14,4.7-21.1Z"/>
        <path class="st46" d="M339.7,246.6c1.9-2.8,4.6-5.1,7.7-6.5,2.5-1.1,5.1-1.6,7.8-2.1,6.9-1.3,13.8-2.6,20.8-2.2,7,.3,14.1,2.4,19.4,6.9.7.6,1.4,1.3,1.6,2.2.2.7,0,1.5-.3,2.2-1.7,3.8-6.6,4.6-10.8,4.9-8.2.7-17.3,2.6-22,9.3-4,5.8-3.8,13.7-7.8,19.5-2.7,3.9-7.1,6.4-11.3,8.7-.7.4-1.6.8-2.3.4-.5-.3-.7-.9-.8-1.4-.6-2.4-1-4.8-1.5-7.3-1.3-7.8-2.6-15.5-3.9-23.3-.3-1.8-.6-3.7-.3-5.6.4-2.5,1.9-4.8,3.7-6.6,4.6-4.6,11.1-6.6,17.4-8.5,5.2-1.5,10.6-3,15.9-1.9"/>
        <path class="st2" d="M339,278.9c-.3-8.6-4.2-16.7-4.2-25.3,0-1.5.1-3,.7-4.4.7-1.5,2-2.7,3.3-3.8,3-2.4,6.3-4.4,9.9-5.8,4.2-1.7,8.8-2.7,13.3-3.3,11.5-1.6,23.8-.8,33.8,5.1,9.7,5.7,16.4,15.7,19.2,26.6,2.8,10.9,2.1,22.4-.9,33.2-1.8-4.9-4.1-9.9-7.9-13.4s-9.7-5.4-14.4-3.3c-4.3,1.9-6.8,6.5-8.1,11.1-.7,2.4-1,4.9-2,7.3-2.4,5.7-8.5,9.7-14.7,9.5,1.2,4.4,2.3,8.8,4.5,12.7s5.5,7.5,9.7,9c4.4,1.6,9.4.8,13.6-1.3,4.2-2.1,7.7-5.4,10.8-8.9,2.4,2.6,2,6.8.9,10.1-3.7,10.9-14.5,18.9-25.9,19.4-11.5.5-22.9-6.6-27.6-17.1-1.7-3.7-2.7-7.9-5.6-10.7-3.2-3-8.2-3.7-11.4-6.8-5.1-4.9-4.2-13.2-1.6-19,2.9-6.4,4.9-14,4.7-21.1Z"/>
        <path class="st26" d="M409,263.3c2.3,6.3,2.5,13.1,2.1,19.8-.8-4.8-5-8.2-8.2-11.9-2.8-3.3-10.7-15.4-6.8-19.7,4.2-4.6,11.8,8.8,12.9,11.8Z"/>
        <path class="st1" d="M369.3,312.2c-3.9-.2-7.8-.8-11.4-2.3-3.6-1.5-6.9-3.8-9.2-7"/>
        <path class="st1" d="M353,298.6c-1.4-.1-2.8.8-3.5,2s-.8,2.7-.8,4.1"/>
        <path class="st26" d="M343.3,300.7c-.2.3-.5.6-.9.7-.2,0-.4,0-.6,0-.5-.2-.9-.7-1.1-1.3s-.2-1.1-.2-1.7c0-.5,0-1,0-1.5,0-.7.1-1.4.5-1.9,1.2-1.8,3-1.7,3.4.4.4,1.9,0,3.9-1.1,5.5Z"/>
        <path class="st26" d="M319.6,239.5c-1.2.1-2.4.3-3.4.9-1.1.6-1.9,1.6-2,2.8-.1,1.8,1.7,3.3,3.5,3.5,1.8.2,3.6-.5,5.2-1.2,5.5-2.4,7.6.9,12.6.7-.2-6.5-11.4-7.1-15.8-6.6Z"/>
        <path class="st26" d="M215.6,385.7c-1.8,3.2-2.9,6.7-4,10.2-.3,1.1-.4,2.7.7,3,.8.2,1.6-.6,2-1.4,2.6-4.1,4.8-8.4,7.2-12.6,1.2-2.1,2.3-3.5,4.7-4.3s3.4,0,4.4-1.4c3.1-4.2-3.7-2.9-5.5-2.3-4.3,1.5-7.4,4.8-9.6,8.8Z"/>
        <g>
          <path class="st22" d="M319.5,286.7s-20.9.5-30.3,10c0,0-12.5-3.3-16-17.9-3.5-14.6,4.8-23.9,10.8-28,6-4.2,18.6-5.4,28.1,5,9.5,10.4,11.7,24.4,7.5,30.9Z"/>
          <path class="st26" d="M317.5,286.6s-18.8.6-27.4,9c0,0-11.2-2.8-14.3-15.5-3.1-12.7,4.5-20.8,9.9-24.5,5.4-3.7,16.8-4.8,25.3,4.1,8.5,9,10.4,21.1,6.5,26.8Z"/>
          <path class="st47" d="M312.4,286.5s-12.4,2.1-17.5,5.1c-5.1,3.1-10-12.4-8.9-17.3,1.2-4.9,3.8-8.3,9.4-9.7s14.5,2,16.4,9.9c1.9,7.9.5,11.9.5,11.9Z"/>
          <path class="st36" d="M290.6,278.5c.5,5.4,5.1,10,10.2,10.3,5.1.4,8.7-3.7,8.2-9-.5-5.3-5.1-9.9-10.2-10.3-5.1-.4-8.8,3.6-8.3,9Z"/>
          <path class="st26" d="M299.1,270c.4,1.6,2,2.9,3.6,2.9s2.6-1.3,2.2-2.8-2-2.9-3.6-2.9c-1.6,0-2.6,1.3-2.2,2.8Z"/>
        </g>
        <path class="st42" d="M318.9,289.7c-1.7,2.2-5.1,1.8-7.9,2.1-4.9.4-9.2,3.4-12.8,6.8-6.3,5.8-8.8-.3-2.3-3.9,6.9-3.9,15-5.6,23-4.9Z"/>
        <path class="st12" d="M374.9,693.9s-.3-8.9,3.7-12.1,9.8-.4,15.2,6.9c5.5,7.3,3.8,8.4-2.3,9.2s-11.5.7-12.5,0-1.9-.6-2.9-1.4c-1-.8-1.2-2.5-1.2-2.5Z"/>
        <path class="st2" d="M307.6,686.1c3.3.7,6.7.5,10,.2,7-.5,14-1.1,21.1-1.6,4.8-.4,9.6-.7,14.3,0,4.7.6,9.5,2.4,12.9,5.7"/>
        <path class="st2" d="M235.5,701.7c-8.3,8.8-18.3,15.9-29.3,20.8-2.8,1.2-5.7,2.4-8.1,4.2-3.7,2.8-6.2,6.9-8.1,11.1"/>
      </g>
      <g>
        <polygon class="st31" points="473.7 285.9 610 277.7 614.4 281.5 636.9 282.6 500.5 294.4 493.9 289.7 477 290.2 473.7 285.9"/>
        <g>
          <polygon class="st21" points="500.5 520.3 451.8 487.9 493.9 467.1 500.5 520.3"/>
          <polygon class="st40" points="496.1 287 473.7 285.9 451.8 487.9 489.6 480.8 497.8 291.3 496.1 287"/>
          <polygon class="st38" points="503.8 293 496.1 287 489.6 481.4 500.5 520.3 503.8 293"/>
          <polygon class="st35" points="636.9 282.6 500.5 291.9 500.5 520.3 648.9 500.5 636.9 282.6"/>
        </g>
        <path class="st23" d="M587,304.5c0,2.1,1.7,3.9,3.8,3.9s3.8-1.7,3.8-3.8c0-2.1-1.7-3.9-3.8-3.9s-3.8,1.7-3.8,3.8Z"/>
        <path class="st23" d="M529.5,309.9c0,2.1,1.7,3.9,3.8,3.9s3.8-1.7,3.8-3.8c0-2.1-1.7-3.9-3.8-3.9s-3.8,1.7-3.8,3.8Z"/>
        <path class="st23" d="M552.6,212.3c-8.9-4.9-19.7-1.6-26.4,8.1-5.4,7.8-7.9,18.8-9.6,29.5-2,12.7-3.1,25.6-2.8,38.6,1.2,0,2.3-.1,3.5-.2.6-15.5,2.2-30.8,4.7-45.9.8-4.5,1.6-9,3-13.1,1.4-4.1,3.4-8,6.2-10.5,3.6-3.3,8-4,12.3-4.2,3-.1,6.2,0,8.8,2.1,1.1.8,4.6,4.1,4.8.6.2-2.7-3.1-4.4-4.4-5.1Z"/>
        <path class="st28" d="M593.7,298.8c-.2,2.1-.4,4.2-1.1,6s-.9,1.2-1.4,1-.8-1.2-.8-2.1c-.8-16.1.8-32.6,3-48.8.2-1.6.5-3.3,1.1-4.8.6-1.4,1.6-2.5,2.6-2.3,1.4,7.2-.6,17.3-1.2,25-.7,8.6-1.4,17.3-2.2,25.9Z"/>
        <path class="st28" d="M531.4,297.8c0-2.9,0-5.8.2-8.7,1-16.6,3.1-33.2,6.4-49.5,1.9-9.3,4.2-18.7,9.1-26.5,1-1.5,2.1-3,3.5-4,1.4-1,3-1.5,4.6-1.9,4.8-1.3,9.7-2.1,14.7-1.6,2.9.3,10.6,1.4,11.7,4.9-2.9,1.6-8.4-2.2-11.6-2.3-5.1-.2-10.2,1.6-14.3,4.9-6.9,5.5-11,14.3-13.7,23.1-6.7,21.8-6,45.4-6.7,68.4,0,.7-.2,1.4-.4,2,0,.6,0,1.1-.1,1.3,0,1.5-.1,3-.5,4.5-.2.6-.6,1.3-1.2,1.2-.5-.1-.7-.8-.8-1.4-.2-1.8-1.6-10.4-.9-14.5Z"/>
      </g>
      <g>
        <path class="st37" d="M287.2,245.9c.6.2,1.2,0,1.9,0s1.3.1,1.8.6.7,1.4.2,2c-.3.4-.8.5-1.2.5-2.2.3-4.5.6-6.7.9.2.4.7.4.8.8,0,.2,0,.5-.2.7s-.4.2-.6.3c-1.8.7-3.7,1.2-5.6,1.7.4,0,.8.2,1.2.4,0,0,.1,0,.1.1,0,0,0,.2,0,.2-.4.7-1.1.9-1.7,1-1.3.3-2.6.6-3.9.9.5.1,1,.4,1.4.6,0,0,.2.1.2.2.1.3-.2.5-.5.6-1.7.6-3.5,1-5.3,1.4.3.2-.1.8-.5,1-1.3.6-2.6,1.2-3.8,1.8,1,0,2,0,3,.4,0,.4-.4.7-.7.8-1.9.7-3.8,1.4-5.7,2.2.5-.2,1,0,1.4.2-1.7,1.7-3.7,3-5.9,3.6.7,0,1.4-.1,2.2-.2-.4,1.3-1.5,2.2-2.6,2.7s-2.2.8-3.3,1.5c.5,0,.9,0,1.4,0-.5.6-1.1,1-1.7,1.2.5,0,1-.2,1.5-.3.1,0,.2,0,.3,0,.2.2,0,.6,0,.8-.5.7-1.1,1.3-1.8,1.5.1-.1.4,0,.4.2-.3.6-.7,1.1-1.2,1.5.4,0,.9,0,1.3.2-.4.8-.8,1.5-1.4,2.2.3-.5,1,0,1,.6s-.3,1.1-.7,1.5c-1.1,1.3-2.2,2.5-3.6,3.2-.3-.8.9-1.6.7-2.4,0-.2-.1-.4-.2-.6-.2-.8.4-1.9,0-2.5-.3.6-.4,1.3-.5,1.9s-.3,1.3-.8,1.7-1.2.5-1.5,0c-.2-.3-.2-.6-.2-1,0-1.2,0-2.4,0-3.6,0-1.5,0-3,.4-4.5.4-1.9,1.3-3.7,2.3-5.3,2.2-3.8,4.9-7.2,7.4-10.7.9-1.3,1.9-2.7,3.2-3.5,1.1-.7,2.3-1,3.5-1.2,1.6-.3,3.2-.4,4.9-.5.4,0,.9,0,1.2-.4.2-.2.4-.5.6-.7.7-1,1.3-2.1,2-3.1s.9-.6,1.3-.9c3-2.3,6.1-4.6,9.6-5.2.9-.2,1.9-.2,2.7.2s1.8,1.3,2,2.4Z"/>
        <path class="st37" d="M326.8,225.1c-.2-.4-.6-.6-1-.7s-.8,0-1.2.2c-.9.3-1.9.6-2.8.9.4-.7.5-1.6.2-2.3,0-.1-.1-.3-.2-.4-.3-.2-.7,0-1,.2-1.2.9-2.3,1.9-3.4,2.9.3-.4.6-.8.8-1.3s.2-1.1,0-1.6c-.4-.9-1.4-.9-2.2-.6-.3.1-.7.3-.8.7-.2.5,0,1,.2,1.5,0,.1,0,.2,0,.3,0,0-.1.1-.2.2-.4.2-.7.4-1.1.7,0,0-.2,0-.2,0-.2,0-.3-.2-.4-.4s-.3-.3-.4-.2c-.1-.4-.2-.8-.4-1.1-.6-1.4-2.2-2.1-3.4-1.5-.9.4-1.7,1.5-2.8,1.4-.6.1-1.4.3-2,.7-.2.1-.5.3-.6.5-.1.1-.2.3-.3.4-.6.8-1.8.5-2.3,1.4-.6-.5-1.4-1-2-.6-.6.3-.9,1.1-1.4,1.6s-1.4,1.3-2,1.9c-.4,0-.6-.5-.4-.9s.5-.6.9-.8c.3-.2.6-.4.8-.7.4-.4.8-1.1.5-1.7-.2-.4-.7-.5-1.2-.4-1.2.3-2.1,1.5-3.3,1.8.1-.1.2-.2.3-.4s0-.4,0-.5c0,0-.2,0-.3,0-.9.2-1.8.8-2.6,1.3-1.1.7-2.2,1.4-3.4,2.1,0-.2-.3-.3-.5-.3-1.3,0-2.5.9-3.5,1.9-.2.2-.4.3-.5.6s0,.6.2.7c-.1.2-.4.3-.7.2s-.4-.2-.7-.3c-.5-.2-1.1,0-1.6.3s-.9.8-1.3,1.3c-2.7.3-4.9,2.5-7,4.6-.5-.3-1.1-.3-1.6,0s-1,.7-1.4,1.1-.9.6-1.2.8c0,0-.2.1-.2.1-.1,0-.2,0-.3-.1-.7-.5-1.6,0-2.3.7-1.4,1.2-2.6,2.7-3.7,4.4-.5-.2-1,.1-1.5.5s-.8.9-1.2,1.2c-.3.2-.7.3-1.1.3-.2,0-.5,0-.7,0-.2,0-.3.3-.4.5-.6,1.1-1.3,2.2-1.9,3.3-.7,0-1.4.7-1.9,1.3s-.8,1.5-1.1,2.3c-.5,0-.9.3-1.2.7s-.4,1-.6,1.5c-.3-.4-.9-.3-1.3,0s-.5.9-.7,1.5c-.4,1.3-1,2.5-1.8,3.5-.5.7-1,1.4-1,2.3-.4,0-.9.6-.8,1-.4-.3-.9,0-1,.5s-.2,1-.2,1.5c0,1.1-.4,2.1-.6,3.1-.5,2.5-.2,5.2.9,7.4s.3,1.8.4,2.7c0,.5.3.9.5,1.2.2.4.5.9.8,1.2.2.3.5.6.9.6.6,0,.8-1,.7-1.7,0-.2-.1-.4,0-.6,0-.2.2-.3.3-.4.5-.6.5-1.6,1-2.2.2-.2.4-.3.5-.6s.2-.6,0-.8c.4,0,.7-.5.8-1,0-.2,0-.3,0-.5.1-.3.4-.3.6-.3.6,0,1.2-.3,1.5-.8s.5-1.3.2-1.9c.6.1,1.2,0,1.6-.6s.4-1.4,0-1.9c.7,0,1.3-1,1-1.8.6,0,1.4.1,1.7-.5.2-.3.2-.6.2-.9,0-.9,0-1.7-.4-2.5,1.4.7,3.2.1,4.1-1.3.2-.3.3-.6.4-.9.1-.5,0-1-.2-1.4.7.5,1.5.9,2.2.4.2-.2.3-.4.5-.6.2-.4.4-.8.6-1.1.3-.6.6-1.3.3-1.9.3.3.8.4,1.2.4,1.7-.2,3.1-1.8,3.9-3.6,0,.5.6.8,1,.7s.8-.5,1.1-.9c.7-.9,1.4-1.7,2.2-2.6,0,.3.2.5.4.6s.5,0,.7,0c1.1-.4,2.1-1.3,2.8-2.4s.9-.8,1.3-1.3c0,.3.3.3.5.2.9-.4,1.8-.9,2.7-1.4-.1.1,0,.4,0,.5s.3,0,.5,0c.6-.1,1.2-.3,1.8-.5,3.7-.9,7.5-.4,11.1-1.6.2,0,.3-.1.4-.3s0-.4-.2-.4c1.3-.2,2.5-.4,3.8-.7s.5-.1.6-.4-.2-.6-.4-.7-.5,0-.8-.1c1.7-.3,3.4-.7,5.1-1,.2,0,.4,0,.5-.2s0-.5-.1-.5c1.3,0,2.7-.2,4-.5.3,0,.6-.2.7-.5,0-.3-.2-.5-.4-.6s-.5,0-.7-.2c1.9.5,3.9.5,5.8,0,.2,0,.3,0,.4-.3.2-.3-.1-.8-.4-.9s-.7-.1-.9-.4c1.8.4,3.9.5,5.7.5.2,0,.4,0,.6-.1s.3-.5.2-.7c0-.1-.2-.2-.3-.2-.4-.2-.9-.3-1.3-.3,1.4.4,2.8.6,4.2.5.2,0,.4,0,.5-.2s0-.5-.2-.4c.7.3,1.6.4,2.3.2-.1-.4-.3-.7-.6-.9,1,.6,2.1.9,3.2,1.1.2,0,.4,0,.6-.1.3-.3,0-.8-.3-1.1-.5-.5-1-.9-1.6-1.4.8.2,1.6.2,2.4.2.5,0,1.1-.1,1.5-.5s.5-1.3,0-1.6c0-.4-.6-.7-.7-1.1,0-.2,0-.4,0-.6,0-.4-.2-.7-.5-1,.2.1.4,0,.6-.3s.1-.5.1-.8c0-.4,0-.8-.2-1.2s-.4-.7-.8-.7c.2-.4.8-.3,1-.7.3-.4,0-1-.4-1.2s-1-.4-1.2-.8Z"/>
        <path class="st9" d="M325.2,225.3c.3-.4.8,0,1.1.2.4.4.9.7,1.3,1.1-.2.4-.8.3-1,.7-.2.3,0,.7.2.9s.5.3.8.6.4.7.1,1c-.2.2-.5.2-.6.5-.1.2,0,.6.1.8s.3.4.4.7c0,.2,0,.4,0,.7,0,.5.5.8.7,1.3.1.6-.2,1.1-.6,1.5-.2.3-.5.6-.8.5,0-.3-.4-.9-.5-1.2,0,0,0-.1,0-.2-.2-.5-.4-1.1-.4-1.6,0-.7.3-1.3.2-2,0-.7-.5-1.2-.8-1.8-.5-1-.8-2.8,0-3.6Z"/>
        <g>
          <path d="M243.6,267c0,0-.1,0-.2,0,0,.1-.2.3-.2.4-.2,1-.3,2.1-.6,3.1-.5,1.6,0,3.3,0,4.9,0,.2.1.5.2.7.2.4.5.8.7,1.3.4,1.3,1.4,1.8,2.3,2.5.1,0,.3,0,.5,0,0,0,0-.1,0-.2-.3-.3-.5-.5-.8-.8-.7-.6-1.3-1.4-1.8-2.3-.5-.7-.3-1.5-.5-2.4.5.5.9.8,1.2,1.1,0,.5,0,1,0,1.1.8.6,1.6,1.2,2.4,1.8,0,0,.2,0,.3,0,0,0,0-.3,0-.4-.2-.2-.4-.4-.6-.6-.5-.5-1-.9-1.4-1.4-.3-.3-.5-.8-.7-1.2-.4-.6-.8-1.3-1.1-2-.2-.4-.1-1-.2-1.6,2.1,4.1,3,4.4,4.7,5.7,0-.5,0-1.1-.3-1.4-.6-.8-1.4-1.4-2.2-2.1-.3-.2-.6-.4-.7-.8-.5-1.5-1-2.9-.8-4.6,0-.3,0-.6-.1-.9ZM270.1,256.7c0,0,0,.1,0,.2-1.9.9-4,1.4-5.8,2.6.2,0,.3,0,.4,0,.7-.2,1.5-.4,2.2-.6,1.5-.5,3-1.1,4.5-1.7.3-.1.8-.5.9-.8,0-.5.3-.6.6-.8.7-.3,1.3-.5,2-.7.7-.3,1.5-.5,2-1.3-2.8.7-5.6,1.6-8.3,3.1,0,0,0,.1,0,.2.5,0,.9-.1,1.4-.2ZM272.4,253.6c0,0,0,.2,0,.2.2,0,.4,0,.6,0,1.7-.4,3.5-.8,5.2-1.2,1.2-.3,2.3-.8,3.5-1.3.2,0,.4-.3.5-.4,0-.1,0-.3,0-.5-.1,0-.3,0-.4,0-.4.1-.8.3-1.2.4-.9.3-1.8.4-2.7.7-1.6.5-3.3,1.1-4.9,1.7-.2,0-.4.3-.7.4ZM262.9,262.3c0,0,0,.1,0,.2-.8.5-1.7.9-2.5,1.4-.8.5-1.6,1-2.4,1.6,2.3-.4,4.3-1.6,6.2-3.3-.3,0-.4,0-.6,0,1.7-1,3.3-2,5-2.9,0,0,0-.1,0-.2-2.2.7-4.2,1.7-6.3,3.2.3,0,.4.1.6.2ZM277.3,249.9c0,.1,0,.2,0,.3.6,0,1.2,0,1.8,0,1.9-.4,3.8-.8,5.6-1.2.7-.2,1.4-.3,2.1-.6.2,0,.3-.4.4-.6-.2,0-.3-.2-.5-.1-.8.1-1.5.3-2.3.5-1.7.3-3.4.7-5.1,1-.7.2-1.4.4-2.1.7ZM293.4,243c0,0,0,.1,0,.2.2,0,.3.1.5.1,1.4,0,2.8-.1,4.2-.2,1.1,0,2.2-.2,3.4-.3.4,0,.8-.2.9-1-3,.4-6,.3-8.9,1.2ZM298.8,241.1c0,0,0,.1,0,.2.1,0,.2,0,.4.1.8,0,1.7.1,2.5,0,1.5,0,3.1-.2,4.6-.3.2,0,.4-.3.6-.5-.2,0-.5-.3-.7-.3-.7,0-1.3,0-2,.1-1.6.1-3.3.2-4.9.3-.2,0-.3.2-.5.2ZM322.6,237.6c-.1-.2-.2-.5-.4-.6-.7-.3-1.5-.6-2.3-.8-.4-.1-.7-.2-1,.3,0,.1-.4.2-.6.2-.6-.1-1.3-.3-1.9-.4-.4,0-.8,0-1.2.1,0,0,0,.2,0,.3,1.7.4,3.4.9,5.2,1.4-.1-.3-.2-.5-.2-.7.8-.4,1.5.4,2.3.4ZM305.9,238.9c0,0,0,.1,0,.2.2,0,.3.2.5.2.6.1,1.3.2,1.9.3,1.2,0,2.3,0,3.5,0,.2,0,.3-.2.5-.4-.2-.1-.3-.3-.5-.3-1.6,0-3.3-.1-4.9-.1-.3,0-.6,0-.9,0ZM311.8,237.1c-.2.1-.3.3-.5.5.2.1.3.3.5.3,1.5.4,3,.7,4.5,1,.2,0,.4-.2.6-.2-.2-.2-.3-.4-.5-.4-.7-.2-1.4-.4-2.1-.5-.8-.2-1.6-.4-2.5-.6ZM257,268.1c.9,0,3.6-1.9,3.9-2.7-1.5.6-2.8,1.2-3.9,2.7ZM245.4,281.2c0-.2,0-.3,0-.3-.3-.5-.7-1-1.1-1.4,0,0-.3,0-.4.2,0,0,0,.3,0,.4,0,.2.2.5,0,.6-.3.4,0,.7.1.9.4.4.8.7,1.3,1,0,0,.2,0,.2,0-.4-.5-.8-.9-1.1-1.4,0,0,0-.1.1-.2.2,0,.5.1.8.2ZM250,277.5c.1,0,.2,0,.2-.1.9-.6,1.9-1.3,2.8-1.9.1,0,.2-.3.2-.5-.2,0-.4-.1-.5,0-.4.2-.7.5-1.1.8-.6.4-1.2.7-1.7,1.1-.1,0-.2.3-.2.5,0,0,.2.1.2.2ZM323.6,235.9v.2c0,.2.1.4.3.5.8.5,1.5,1,2.3,1.4.1,0,.3,0,.4,0,0-.1-.1-.3-.2-.4-.6-.4-1.2-.8-1.8-1.1-.3-.2-.7-.3-1-.5ZM250.3,284.2c.4.3.6,0,.8-.3.3-.7.6-1.4.9-2.1-.4,0-1.2.5-1.1.9.1.7-.3,1-.6,1.5ZM251.7,279.1c0,0,0-.1-.1-.2-.8.1-1.6.9-1.6,2,.7-.7,1.2-1.2,1.8-1.8ZM250.3,281.9c.8-.3,1.4-1,1.4-1.6-.7.1-1.3.8-1.4,1.6ZM251.9,277.5c0,0,0-.1-.1-.2-.7.5-1.4,1.1-2.1,1.6,0,0,0,.2.1.2.8-.3,1.4-1,2-1.6ZM256.7,270.1c-.6.4-1.4.6-1.8,1.3,0,0,0,.1.1.2.5-.5,1.1-1,1.6-1.5ZM269.4,240c0,.1,0,.2.1.3l1.3-.8c0,0,0-.2,0-.2-.5.2-.9.5-1.4.7Z"/>
          <path class="st9" d="M326.7,235.3s.1,0,.1,0c0-.2.1-.4,0-.6,0,0-.2-.2-.3-.2-.3,0-.6,0-1.1,0,.2-.3.3-.5.5-.8-.3,0-.5,0-.7,0-1,.3-2.1.6-3.1.9-.2,0-.5,0-.7.1,0,0,0-.1,0-.2.2-.1.5-.2.7-.3.1-.1.2-.3.4-.5-.2,0-.3,0-.5,0-1.9.7-3.8,1.4-5.7,2,0,0-.1,0-.4,0,.2-.2.4-.3.5-.4.3-.1.6-.2.9-.3.1,0,.2-.3.3-.5-.1,0-.3-.1-.4,0-.7.3-1.4.7-2.1.9-.6.2-1.2.3-1.9.3-.8,0-1.4.6-2.1.9-1.4.7-2.9,1.2-4.4,1.8-.4.2-.8,0-.7-.8-2,.7-3.7,2.4-5.9,2.5,0,0,0-.1,0-.2.2-.2.4-.5.6-.7,0,0,0-.1,0-.2-.2.1-.4.2-.7.4-.9.5-1.9,1.1-2.8,1.6-.3.2-.6.4-.9.6-.5.3-.9.5-1.5,0,.8-.9,1.8-1.6,2.4-2.8,0,0,0,0-.1-.1-.5.4-.9.7-1.4,1.1-1.2,1-2.4,1.9-3.5,2.9-.6.5-1.2,1-1.9,1.4-.3.2-.7.3-1.1.4,0,0,0-.2,0-.2.4-.3.8-.6,1.2-.9,0,0,0-.1,0-.2-.2,0-.4,0-.5,0-1.1.6-2.2,1.2-3.3,1.9-.9.5-1.7,1.1-2.6,1.6,0,0,0,.1,0,.1l6.6-.7c0,0,0-.2,0-.2-.9,0-1.8,0-2.7,0,.5-.7,9.4-2,10.2-1.5-.6.3-1.1.6-1.6.7-.9.2-1.8.3-2.7.5-.2,0-.4.3-.4.4,0,.5-.3.6-.7.7-2.6.3-5.1.7-7.7,1-.5,0-1.1,0-1.6,0-.2,0-.3.1-.4.2-.4.4-.8.4-1.3.2,1.6-.6,2.3-2.2,3.2-3.6-2,1.5-3.8,3.5-6.2,4.5,0-.7.8-.9.5-1.5,0-.2-.2-.4-.3-.7-1.1,2.7-2.8,4.3-4.8,5.7,0,0,0,0-.1-.1,0-.5.1-1,.2-1.6,0-.4,0-.7-.3-.9-.2,0-.3-.3-.5-.4-.2-.1-.3-.2-.5-.2.8,1.4.1,2.5-.5,3.5-.5.8-1.1,1.5-1.6,2.3,0,.1-.2.2-.4.3,0-1,0-1.9-.8-2.4-.8-.5-1.6-.7-2.7-.5.3.2.4.3.5.4.7.4,1.1,1.5.8,2.4,0,.2,0,.4-.2.5-.7.8-1.4,1.6-2.1,2.4-.1.1-.3.1-.4.2-.1-1.6-2.7-2.8-3.7-2,.3.2.5.3.7.5.8.6,1.4,1.9.6,2.9-.4.5-.6,1.1-.9,1.8-.7-.5-1.3-1-2-1.4-.7-.4-1.4-.5-2.1-.5.6.6,1.2,1.1,1.7,1.8.4.5.3,1.2,0,1.7-.3.5-.6.9-1,1.3-.1.1-.5.2-.5,0-.5-.9-1.4-1-2.1-1.3-.1,0-.3-.1-.4-.1-.2,0-.5,0-.7,0-.3,0-.7.2-1,.2,0,0,0,.1,0,.2.3.2.6.5.9.7.5.4.8.9.7,1.7,0,.5,0,.9,0,1.4,0,.4-.2.5-.5.3-.9-.5-1.8-1-2.7-1.5,0,0-.2-.1-.3-.1-.2,0-.4.1-.6.2.1.2.2.4.4.5.8.3,1.4,1.1,1.8,1.9.1.3.1.9,0,1.1-.2.4-.6.2-.9-.1-.7-.7-1.5-1.1-2.5-1.1-.1,0-.3,0-.5.3.1,0,.2.2.3.2.9,0,1.5.8,2.2,1.2.1,0,.3.3.3.5,0,.4,0,.8.1,1.3,0,.4,0,.6-.5.5-1.3-.2-2.5-.4-3.8-.5-.2,0-.4.2-.6.3.2.2.3.4.5.5.6.4,1.2.6,1.8,1.1.2.2.3.6.5.9,0,0,0,.1-.1.2-.5-.1-1.1-.2-1.5-.5-.8-.4-1.5-.8-2.2-1.2-.2-.1-.3-.3-.4-.5-.3-.9-.7-1.7-.9-2.6-.2-.9-.3-1.9-.4-2.9,0-.2.1-.4.2-.6.1.1.3.2.4.4.1.2.2.5.2.8.3,1.4.5,2.7.8,4.1,0,.2.4.5.7.5.4,0,.2-.4.2-.7,0-.5,0-1.1,0-1.6-.1-1.4-.3-2.7-.5-4.1-.5.2-.4-.2-.4-.6,0-1.5.7-2.7,1.4-4,.4-.6.6-1.4.8-2,.2-.4.4-.9,1-.8-.4.7-.7,1.3-1,2,.7,0,.9-.3,1.1-.8.4-.9.7-1.8,1.1-2.6.1-.2.4-.4.6-.5.4-.3.9-.5,1.1-.9.6-1.2,1.4-2.1,2.3-3,.4-.4.6-1,.9-1.4.6-.7,1.2-1.4,1.8-2,.1-.2.4-.3.6-.3.6,0,1-.6,1.5-1,.5-.5,1.1-1,1.7-1.5,0,0,.1,0,.3,0-.8,1.1-1.6,2.1-2.4,3.1.6.5.7.9.4,1.8-.7,2.2-1.5,4.3-2.6,6.2,0,.1-.1.3-.2.5.7-.4,1.4-.8,1.9-1.6.5-.8.8-1.8,1.2-2.6.5-1.1,1.2-2.1,1.7-3.2.2-.4.2-1.1.1-1.6,0-.5-.5-.3-.8,0-.2.2-.4.4-.6.6,0,0-.1,0-.2,0,0-.3,0-.6.2-.8,1.7-2.3,3.3-4.5,5.3-6.5.3-.3.8-.4,1.1-.7,0,0,0,.1.1.2,0,.2-.2.4-.3.7,1.3,0,1.8-1.6,2.9-1.9,0,.8-.7,1-.9,1.2.2.5.6,1,.6,1.4,0,.5-.2,1.1-.4,1.6-.6,1.1-1.3,2.2-1.9,3.3-.3.4-.5.9-.8,1.3-.5.7-1,1.3-1.6,1.9,0,0-.1.2-.2.4.5.2.9,0,1.2-.4.6-.6,1.1-1.3,1.7-2,.5-.6.9-1.2,1.4-1.8.9-1.3,1.8-2.5,2.6-3.8.3-.5.4-1,.6-1.6.2-.6,0-.9-.8-1,.2-.3.4-.6.6-.9,1.1-1,2.2-2,3.4-2.9.5-.4,1.1-.8,1.7-1.2.1,0,.4,0,.6.2,0,0,0,.1,0,.2,1-.8,2-1.5,3-2.3.2-.1.4-.3.6-.4.5-.2,1,.2,1,.8,0,1-.6,1.6-1.1,2.3-.9,1.2-1.9,2.3-2.9,3.4-.9,1-1.8,1.9-2.7,2.9,0,0-.2.2-.2.4.6,0,1.1-.5,1.5-.9.8-.7,1.7-1.5,2.5-2.2.2-.2.4-.3.5-.5.9-1,1.8-1.9,2.9-2.6.6-.5,1.2-1.1,1.7-1.7.4-.4.8-.9,1.1-1.4.4-.8.2-1.2-.6-1.3-.2,0-.4-.1-.6-.2,0,0,0-.2,0-.3.8-.5,1.6-1.2,2.4-1.5.4-.2,1,.2,1.4.2.2,0,.4,0,.6-.2,1.4-.9,2.9-1.9,4.3-2.9.1,0,.3-.1.4-.1,0,0,.2,0,.3.2,0,0,0,.3,0,.3-.2.2-.3.3-.5.4-1.4.8-2.8,1.5-4.1,2.2-.2,0-.4.4-.3.5.2,1.6-.6,2.4-1.5,3.3-1.7,1.8-3.5,3.6-5.3,5.4.3-.1.7-.1.9-.3,1.4-1.2,2.8-2.4,4.2-3.7,1.1-1,2.1-2.1,3.4-2.8.9-.5,1.2-1.5,2-2,.2-.1.2-.6.2-1,0-.5.1-.9.5-1,.7-.2,1.2-.6,1.8-1.2.4-.4,1-.5,1.4-.8.4-.2.7-.5,1.1-.7.1,0,.3,0,.5,0,0,0,0,.1,0,.2-.6.4-1.2.8-1.8,1.1-.2.1-.4.1-.6.2-.2.1-.3.3-.4.5,0,.1.1.4.3.5.6.5.7,1.4.1,2-1.1,1.2-2.2,2.3-3.4,3.4-.8.7-1.7,1.3-2.5,2-.2.2-.4.4-.6.6,0,.1.2.2.3.4.7-.5,1.4-1,2.1-1.5,1.1-.9,2.2-1.8,3.4-2.6.9-.7,1.8-1.2,2.7-1.9.4-.3.8-.5,1.1-.9.6-.6,1.2-1.1,1.7-1.8.2-.3.3-.8.4-1.2.6.2.8.8.4,1.6-.4.6-.8,1.3-1.3,1.7-1.4,1.1-3,2.1-4.5,3.1-.8.5-1.6,1.1-2.3,1.6,0,0,0,.2,0,.2.3,0,.6-.1.8-.3.8-.5,1.6-1,2.4-1.5,1.2-.8,2.3-1.5,3.4-2.3.4-.3.8-.8,1.2-1.2.4-.4.8-.7,1.2-.2.3.3.5,0,.6-.3.1-.6.4-.9.9-.9.1,0,.2-.2.3-.3-.1-.2-.2-.4-.3-.5-.2-.1-.5-.2-.8-.2,0,0,0-.2,0-.3.5-.2.9-.4,1.4-.6.5-.2,1-.4,1.4-.7.1,0,.2-.5.2-.8,0,0-.1-.1-.2-.2.9-.4,1.8-.8,2.7-1.1.5-.2,1.1-.2,1.7-.3.5-.2,1-.5,1.5-.8.2-.1.5-.2.8-.3.1,0,.3.1.3.2.2.3.4.7.6.9.5.5.5,1.9,0,2.4-1.2,1.1-2.5,1.9-3.9,2.6-.2,0-.3.2-.5.3v.2c.2,0,.4,0,.5-.1,1-.6,2-1.2,3-1.8.4-.2.8-.3,1.2-.4.4,0,.6-.3.6-.8,0-.1.1-.3.3-.6v.7c1.4,0,2.4-1,3.2-2.3.2-.4.1-.6-.2-.8-.2-.1-.3-.2-.6-.3.4-.5,1.2-.4,1.4.1.5,1.1.3,1.5-.4,2.4-1.3,1.3-2.8,1.9-4.3,2.8-.2.1-.5.3-.7.4v.2c.2,0,.4,0,.5,0,1.4-.4,2.6-1.2,3.9-2.1.6-.4,1.3-.5,2-.8.2,0,.4,0,.5-.1.6-.5,1.3-.9,1.9-1.5.2-.1.2-.5.3-.8,0-.1,0-.4.2-.4.1,0,.3-.1.5,0,.4.3.5,1.2,0,1.5-1.2.9-2.5,1.7-3.7,2.6-.3.2-.7.1-1,.3-.2.1-.4.4-.6.5.2,0,.5.2.7.2.6-.2,1.2-.6,1.8-.9,1.4-.7,2.8-1.3,4.3-1.6.2,0,.5-.2.7-.3.5-.2.9-.5,1.4-.6.3,0,.6-.2.7-.4M274.6,237.7c0,.1,0,.2,0,.3,0,0,.2.1.3.2.3.4.6.9.3,1.5-.5.9-1.1,1.8-1.7,2.7-.8,1.3-1.8,2.5-2.9,3.4,0,0,0,.2-.2.3.2,0,.3,0,.4,0,1-.5,1.8-1.3,2.5-2.3.7-1,1.4-2,2.1-3,.7-1,1.4-1.9,2.2-2.8.3-.3.6-.6.9-.9.4-.4.8-.8,1.2-1.3.2-.3.5-.8.1-1.4-.3.3-.5.7-.7.8-.6.2-1,.6-1.3,1.2,0,.2-.3.3-.4.5-.6.5-.8.4-1.1-.4-.6.4-1.2.8-1.8,1.2ZM253.3,260.7c.5,0,.9-.2,1.1-.8.3-.8.6-1.5.9-2.3.4-1.3,1.1-2.4,1.2-3.8,0-1.1.2-1-.6-1.6.3-1.1,1.4-1.6,1.5-2.9-.2,0-.3.1-.3.2-.7,1-1.4,1.9-2.1,2.9-.2.3-.2.7-.3,1.1,0,.8,0,1.6-.2,2.4-.4,1.6-.8,3.2-1.3,4.9ZM249.9,259.4c-.6.4-.9,1.2-.8,1.8,0,.4.2.8.1,1.2-.1,1-.3,1.9-.5,2.9-.1.5-.3,1-.5,1.6,0,0-.1,0-.2,0,0-1.7.4-3.6-.5-5.2-.2.6-.4,1.3-.4,1.9,0,1.2,0,2.4,0,3.6,0,.5,0,.9,0,1.4,0,.2.2.4.3.6.2-.2.5-.3.6-.6,0-.1,0-.3,0-.5,0-.5.2-.9.6-1.1.4-.2.6-.5.7-1,.2-1.6.3-3.2.5-4.9,0-.6,0-1.1,0-1.7ZM260.4,254c0,0,.1.1.2.2.2-.2.5-.3.7-.5.9-1.3,1.8-2.6,2.7-3.9.8-1.3,1.7-2.4,1.6-4.2,0-.7-.4-1-.9-.7-.4.2-.6.5-.6,1.1,0,1.2-.3,2.3-.9,3.2-.7,1.3-1.5,2.5-2.3,3.7-.2.4-.4.8-.6,1.2ZM250.5,263.8c0,0,.1.3.2.3.2,0,.4,0,.5-.2.2-.4.2-.9.4-1.3.8-2,1.3-4,1.6-6.2,0-.2,0-.4-.1-.5-.1,0-.3,0-.5,0-.5.4-.9,1-1,1.8-.1.7-.2,1.5-.3,2.2-.2,1.3-.4,2.5-.6,3.9ZM325.8,225.5c-2.1.9-4.1,1.8-6.1,2.7,0,0,0,.2,0,.3.7,0,1.4,0,2-.3.7-.5,1.5-.3,2.1-.2.7.2,1.2,0,1.8-.2.1,0,.3-.3.4-.4-.2,0-.3-.1-.5-.2,0,0-.2,0-.4,0,.6-.5,1.2-.8.7-1.6ZM304.4,229.8s0,0,0,.1c.1,0,.3,0,.4,0,.6-.5,1.2-.9,1.7-1.4.2-.2.3-.4.7-.3.2,0,.6,0,.8-.1.3-.1.5-.3.8-.5.2-.1.4-.3.4-.5,0-.3-.1-.7-.3-.7-.6-.2-1.2-.3-1.8-.4-.5,0-.6.3-.5.8,0,.3,0,.8-.3,1-.5.6-.9,1.4-1.7,1.7-.1,0-.2.2-.3.3ZM265.9,242.7c-.6,0-2.3,1.5-2.4,2.1,0,.1,0,.3,0,.4.1,0,.3,0,.4-.2.4-.5.8-1,1.2-1.5.2-.3.5-.5.7-.8ZM301.2,232c0,.1,0,.2.1.3.9-.6,1.8-1.2,2.6-1.7,0,0,0-.2-.1-.3-.9.6-1.8,1.1-2.6,1.7Z"/>
          <path class="st25" d="M243.6,267c0,.3.2.6.1.9-.2,1.7.3,3.1.8,4.6.1.3.5.5.7.8.7.7,1.5,1.3,2.2,2.1.3.3.2,1,.3,1.4-1.7-1.3-2.6-1.6-4.7-5.7,0,.5,0,1.1.2,1.6.3.7.7,1.3,1.1,2,.2.4.4.8.7,1.2.4.5.9.9,1.4,1.4.2.2.4.4.6.6,0,0,0,.3,0,.4,0,0-.2.1-.3,0-.8-.6-1.6-1.1-2.4-1.8-.1-.1,0-.6,0-1.1-.3-.2-.7-.6-1.2-1.1.2.9,0,1.7.5,2.4.5.8,1.1,1.7,1.8,2.3.3.2.5.5.8.8,0,0,0,.1,0,.2-.2,0-.3.1-.5,0-.9-.6-1.8-1.2-2.3-2.5-.2-.5-.5-.8-.7-1.3-.1-.2-.2-.4-.2-.7,0-1.6-.4-3.3,0-4.9.3-1,.4-2.1.6-3.1,0-.1.1-.3.2-.4,0,0,.1,0,.2,0Z"/>
          <path class="st25" d="M270.1,256.7c-.5,0-.9.1-1.4.2,0,0,0-.1,0-.2,2.6-1.5,5.4-2.4,8.3-3.1-.5.8-1.3,1.1-2,1.3-.7.3-1.3.5-2,.7-.3.1-.5.3-.6.8,0,.3-.5.7-.9.8-1.5.6-3,1.1-4.5,1.7-.7.3-1.5.4-2.2.6-.1,0-.3,0-.4,0,1.8-1.3,3.9-1.8,5.8-2.6,0,0,0-.1,0-.2Z"/>
          <path class="st25" d="M272.4,253.6c.2-.1.4-.4.7-.4,1.6-.6,3.3-1.2,4.9-1.7.9-.3,1.8-.5,2.7-.7.4-.1.8-.3,1.2-.4.1,0,.3,0,.4,0,0,.2,0,.4,0,.5-.1.2-.3.4-.5.4-1.2.5-2.3,1-3.5,1.3-1.7.5-3.5.8-5.2,1.2-.2,0-.4,0-.6,0,0,0,0-.2,0-.2Z"/>
          <path class="st25" d="M262.9,262.3c-.2,0-.4,0-.6-.2,2-1.5,4.1-2.5,6.3-3.2,0,0,0,.1,0,.2-1.6,1-3.3,1.9-5,2.9.2,0,.3,0,.6,0-2,1.7-3.9,3-6.2,3.3.8-.5,1.6-1.1,2.4-1.6.8-.5,1.7-.9,2.5-1.4,0,0,0-.1,0-.2Z"/>
          <path class="st25" d="M277.3,249.9c.7-.2,1.4-.5,2.1-.7,1.7-.4,3.4-.7,5.1-1,.8-.2,1.5-.4,2.3-.5.2,0,.3,0,.5.1-.1.2-.3.5-.4.6-.7.2-1.4.4-2.1.6-1.9.4-3.8.8-5.6,1.2-.6.1-1.2,0-1.8,0,0-.1,0-.2,0-.3Z"/>
          <path class="st25" d="M293.4,243c2.9-.9,5.9-.7,8.9-1.2,0,.8-.5.9-.9,1-1.1.1-2.2.3-3.4.3-1.4,0-2.8.1-4.2.2-.2,0-.3,0-.5-.1,0,0,0-.1,0-.2Z"/>
          <path class="st25" d="M298.8,241.1c.2,0,.3-.2.5-.2,1.6-.1,3.3-.2,4.9-.3.7,0,1.3-.1,2-.1.2,0,.5.2.7.3-.2.2-.4.5-.6.5-1.5.1-3.1.2-4.6.3-.8,0-1.7,0-2.5,0-.1,0-.3,0-.4-.1,0,0,0-.1,0-.2Z"/>
          <path class="st25" d="M322.6,237.6c-.8,0-1.5-.7-2.3-.4,0,.2.1.4.2.7-1.8-.5-3.5-.9-5.2-1.4,0,0,0-.2,0-.3.4,0,.8-.2,1.2-.1.6,0,1.3.3,1.9.4.2,0,.5,0,.6-.2.3-.4.6-.4,1-.3.8.3,1.5.5,2.3.8.2,0,.2.4.4.6Z"/>
          <path class="st25" d="M305.9,238.9c.3,0,.6,0,.9,0,1.6,0,3.3,0,4.9.1.2,0,.3.2.5.3-.2.1-.3.4-.5.4-1.2,0-2.3,0-3.5,0-.6,0-1.3-.2-1.9-.3-.2,0-.3-.1-.5-.2,0,0,0-.1,0-.2Z"/>
          <path class="st25" d="M311.8,237.1c.9.2,1.7.4,2.5.6.7.2,1.4.3,2.1.5.2,0,.3.3.5.4-.2,0-.4.3-.6.2-1.5-.3-3-.6-4.5-1-.2,0-.4-.2-.5-.3.2-.2.4-.3.5-.5Z"/>
          <path class="st25" d="M257,268.1c1-1.5,2.4-2.1,3.9-2.7-.3.8-3,2.7-3.9,2.7Z"/>
          <path class="st25" d="M245.4,281.2c-.3,0-.5-.1-.8-.2,0,0,0,.1-.1.2.4.4.7.9,1.1,1.4,0,0-.2,0-.2,0-.4-.3-.9-.6-1.3-1-.2-.2-.4-.5-.1-.9,0-.1,0-.4,0-.6,0-.1,0-.4,0-.4.1-.1.4-.2.4-.2.4.4.7.9,1.1,1.4,0,0,0,.2,0,.3Z"/>
          <path class="st25" d="M250,277.5c0,0-.2-.1-.2-.2,0-.2,0-.4.2-.5.6-.4,1.2-.7,1.7-1.1.4-.2.7-.6,1.1-.8.1,0,.3,0,.5,0,0,.2-.1.4-.2.5-.9.7-1.8,1.3-2.8,1.9,0,0-.1,0-.2.1Z"/>
          <path class="st25" d="M323.6,235.9c.3.2.7.3,1,.5.6.4,1.2.7,1.8,1.1,0,0,.1.3.2.4-.1,0-.3.1-.4,0-.8-.4-1.6-.9-2.3-1.4-.2-.1-.3-.3-.4-.5v-.2Z"/>
          <path class="st25" d="M250.3,284.2c.3-.5.7-.8.6-1.5,0-.4.6-.9,1.1-.9-.3.7-.6,1.4-.9,2.1-.1.3-.4.6-.8.3Z"/>
          <path class="st25" d="M251.7,279.1c-.6.6-1.1,1.1-1.8,1.8,0-1,.8-1.8,1.6-2,0,0,0,.1.1.2Z"/>
          <path class="st25" d="M250.3,281.9c.1-.8.8-1.5,1.4-1.6,0,.6-.6,1.3-1.4,1.6Z"/>
          <path class="st25" d="M251.9,277.5c-.6.6-1.2,1.3-2,1.6,0,0,0-.2-.1-.2.7-.5,1.4-1.1,2.1-1.6,0,0,0,.1.1.2Z"/>
          <path class="st25" d="M256.7,270.1c-.5.5-1.1,1-1.6,1.5,0,0,0-.1-.1-.2.4-.7,1.2-.9,1.8-1.3Z"/>
          <path class="st25" d="M269.4,240c.5-.2.9-.5,1.4-.7,0,0,0,.2,0,.2l-1.3.8c0-.1,0-.2-.1-.3Z"/>
          <path class="st27" d="M274.6,237.7c.6-.4,1.2-.8,1.8-1.2.3.9.5.9,1.1.4.2-.1.3-.3.4-.5.3-.6.7-1,1.3-1.2.3,0,.5-.5.7-.8.4.5,0,1-.1,1.4-.3.5-.8.9-1.2,1.3-.3.3-.6.6-.9.9-.7.9-1.5,1.9-2.2,2.8-.7,1-1.4,2-2.1,3-.7,1-1.5,1.8-2.5,2.3-.1,0-.2,0-.4,0,0-.2,0-.3.2-.3,1.1-.9,2.1-2.1,2.9-3.4.6-.9,1.2-1.8,1.7-2.7.3-.5,0-1-.3-1.5,0,0-.2-.1-.3-.2,0-.1,0-.2,0-.3Z"/>
          <path class="st27" d="M253.3,260.7c.5-1.7.9-3.3,1.3-4.9.2-.8.1-1.6.2-2.4,0-.4,0-.8.3-1.1.7-1,1.4-2,2.1-2.9,0,0,.2,0,.3-.2-.1,1.3-1.2,1.8-1.5,2.9.8.5.7.5.6,1.6-.1,1.4-.8,2.6-1.2,3.8-.3.8-.6,1.5-.9,2.3-.2.6-.6.8-1.1.8Z"/>
          <path class="st27" d="M249.9,259.4c0,.6.1,1.2,0,1.7-.1,1.6-.3,3.2-.5,4.9,0,.5-.3.8-.7,1-.4.2-.6.6-.6,1.1,0,.2,0,.4,0,.5-.2.2-.4.4-.6.6-.1-.2-.3-.4-.3-.6,0-.5,0-.9,0-1.4,0-1.2-.1-2.4,0-3.6,0-.6.2-1.3.4-1.9,1,1.6.4,3.5.5,5.2,0,0,.1,0,.2,0,.2-.5.4-1,.5-1.6.2-1,.4-1.9.5-2.9,0-.4,0-.8-.1-1.2-.2-.6.1-1.5.8-1.8Z"/>
          <path class="st27" d="M261.3,253.4c.2-.2.5,0,.7,0,.2,0,.3,0,.5,0,.9,0,1.9,0,2.8-.4,0-.2,0-.4-.2-.5s-.3-.1-.5-.2c-1.2-.1-2.7.2-3.5,1.3-.2.2-.5.4-.7.5,0,0-.1-.1-.2-.2.2-.4.3-.8.6-1.2.7-1.2,1.5-2.4,2.3-3.7.6-1,.9-2.1.9-3.2,0-.5.2-.8.6-1.1.5-.3.9,0,.9.7.1,1.8-.8,3-1.6,4.2-.7,1.2-1.5,2.3-2.3,3.4"/>
          <path class="st27" d="M250.5,263.8c.2-1.3.4-2.6.6-3.9.1-.7.2-1.5.3-2.2.1-.8.5-1.4,1-1.8.1,0,.3-.1.5,0,.1,0,.2.3.1.5-.3,2.1-.8,4.2-1.6,6.2-.2.4-.2.9-.4,1.3,0,.1-.3.2-.5.2,0,0-.1-.2-.2-.3Z"/>
          <path class="st27" d="M325.8,225.5c.5.8-.2,1.2-.7,1.6.3,0,.3,0,.4,0,.2,0,.3.1.5.2-.1.2-.2.4-.4.4-.6.2-1.1.4-1.8.2-.6-.1-1.4-.3-2.1.2-.5.3-1.3.2-2,.3,0,0,0-.2,0-.3,2-.9,4-1.8,6.1-2.7Z"/>
          <path class="st27" d="M304.4,229.8c.1-.1.2-.3.3-.3.8-.3,1.1-1.1,1.7-1.7.2-.2.3-.7.3-1,0-.6,0-.9.5-.8.6,0,1.2.2,1.8.4.2,0,.3.5.3.7,0,.2-.2.4-.4.5-.2.2-.5.4-.8.5-.3.1-.6.2-.8.1-.3-.1-.4,0-.7.3-.5.5-1.1,1-1.7,1.4,0,0-.3,0-.4,0,0,0,0,0,0-.1Z"/>
          <path class="st27" d="M265.9,242.7c-.3.3-.5.5-.7.8-.4.5-.8,1-1.2,1.5,0,.1-.3.1-.4.2,0-.1-.1-.3,0-.4.1-.6,1.8-2.1,2.4-2.1Z"/>
          <path class="st27" d="M302.2,232.1c1.6-.1,3.2,0,4.7.2.9.1,1.8.3,2.7.3s1.8-.2,2.6-.7c.2-.1.3-.3.3-.5,0-.1-.2-.2-.3-.2-1.3-.4-2.7-.3-4.1-.2-1.3.1-2.5.3-3.8.5s-1.1.1-1.7.2-.9.4-1.3.7c0-.1,0-.2-.1-.3.9-.6,1.8-1.1,2.6-1.7,0,0,0,.2.1.3-.5.3-1,.6-1.4,1"/>
        </g>
        <path class="st27" d="M251.2,270.4c0,0,.1.1.1.2,0,.1-.1.1-.2.1-.4,0-.8,0-1.1-.2-.2-.1-.4-.3-.6-.4s-.5,0-.7-.1-.3-.1,0-.4c.8-.6,1.9.3,2.5.8Z"/>
        <path class="st27" d="M250.5,267.2c.2,0,.3,0,.5,0,.1,0,.3.2.4.3.2.2.4.4.6.6,0,0,.1.1.1.2-.2,0-.5,0-.7,0-.2,0-.5-.3-.7-.4-.2,0-.4,0-.6,0-.3,0-1.1.5-1-.2s1.1-.6,1.5-.6Z"/>
        <path class="st27" d="M251.4,264.3c.3,0,.7,0,1-.2,0,0,.2,0,.3,0,.1,0,.2,0,.3.1.2.1.5.3.7.4,0,0,.1,0,.2.2,0,.2,0,.3-.2.4s-.3,0-.4,0c-.4-.1-.8-.2-1.2-.1-.3,0-.5.2-.7.3-.5.3-1.2.7-1.8.7-.2-.7,1.4-1.6,1.8-1.7Z"/>
        <path class="st27" d="M253.6,261.9c1.2-.4,2.4-.5,3.6-.2.3,0,.7.3.7.7-.6.5-1.4.3-2.2.3-.8,0-1.5,0-2.3.2-.6,0-1,.3-1.5.6,0-.8,1.2-1.2,1.8-1.4Z"/>
        <path class="st27" d="M256.7,258.5c.9-.3,1.9-.4,2.8-.4.3,0,.5,0,.7.3s.2.7,0,.8c-.1,0-.2,0-.3,0-.9-.3-1.9,0-2.8.3-.5.2-1,.4-1.5.6s-1.1.7-1,.2.8-.8,1-1c.4-.3.8-.5,1.2-.6Z"/>
        <path class="st37" d="M260.7,254.8c.7-.5,1.5-1,2.4-1,.4,0,.8,0,1.1.2.5.1,1.1.3,1.6.4.2,0,.4.1.5.4,0,.3-.2.5-.4.6-.8.3-1.7-.3-2.6-.3-.6,0-1.2.2-1.7.4-.5.2-1,.4-1.4.6-.5.3-1.1.8-1.7.8.1-.4.6-.6.8-.9.4-.4.8-.8,1.3-1.2Z"/>
        <path class="st37" d="M268.4,248.9c.4-.2.7-.4,1.1-.5.6-.2,1.3-.1,2,0,0,0,.1,0,.1,0,0,0,0,0,0,.1-.2.5-.7.5-1.2.6-.4,0-.9.3-1.3.5-1.6.7-3.3,1.3-5,1.7.3,0,.6-.7.9-.9s.5-.2.7-.3c.9-.3,1.7-.8,2.5-1.3Z"/>
        <path class="st27" d="M277.6,244.4c.5,0,1.1,0,1.6,0,.1,0,.3.2.2.3,0,0,0,0,0,0-.9.4-1.9.7-2.9.9-.3,0-.6.1-.9.1-.8.1-1.6.1-2.4.1s-1.5.2-2.1-.1c2.1-.9,4.4-1.3,6.6-1.5Z"/>
        <path class="st37" d="M279.8,241.2c2-.5,4.2-.8,6,.2-.2.4-.6.5-1,.7-2.1.7-4.4.4-6.6.7-.6,0-1.2.2-1.8.1s-.7-.2-.2-.6,1.1-.4,1.6-.6,1.2-.4,1.9-.5Z"/>
        <path class="st37" d="M287.1,238.4c1.5-.2,3-.3,4.4.3.2.1.5.3.5.6,0,.2-.2.3-.4.4-1.4.5-2.9.3-4.3,0-1.2-.2-2.7-.1-3.8-.6.3-.4,1.1-.3,1.5-.4.7-.1,1.4-.3,2.1-.3Z"/>
        <path class="st37" d="M295.8,235.9c.8-.2,1.6-.3,2.4-.4.4,0,.8,0,1.2.2,0,0,.1,0,.1.2.1.2-.2.5-.4.6-.9.4-1.9.6-2.9.7-1.6.2-3.2.2-4.9.2s-.9,0-1.2,0c-.4-.2,0-.3.3-.3.8-.2,1.7-.3,2.5-.5l2.8-.5Z"/>
        <path class="st37" d="M302.5,233.1c1.1-.1,2.3-.2,3.2.5,0,0,.1.1.1.2,0,0,0,.2-.1.2-.3.2-.7.3-1.1.3-2,.2-4,.3-6,0-.9-.1-2-.4-3-.2,2.3-.5,4.6-.9,6.9-1.1Z"/>
        <path class="st37" d="M315.3,229.4c0,0,.2,0,.2,0,0,.1,0,.3-.2.3-1.7.6-3.5.4-5.2.4,1.7-.5,3.5-.5,5.2-.8Z"/>
        <path class="st37" d="M324.9,229.1c.2,0,.3,0,.5,0s.2.3.2.5c0,0,0,.2-.2.2-1.2,1.2-2.9,1.1-4.5.8-1.5-.3-2.9-.8-4.4-.7,1.3-.4,2.8-.4,4.1-.5s2.8-.3,4.3-.3Z"/>
        <path class="st37" d="M316.7,230.7c1.3,0,2.6,0,3.7.7-.4.3-1,.4-1.5.4-1.8,0-3.6-.5-5.4-.7.7-.5,2.4-.4,3.2-.4Z"/>
        <path class="st37" d="M281.9,243.3c.7-.2,1.5-.2,2,.3-.5.3-1.1.3-1.7.3-.6,0-1.8.5-2.3.2,0-.6,1.5-.7,2-.8Z"/>
        <path class="st37" d="M314.5,233.6c0,0,.1,0,.2,0,0,.1,0,.3,0,.4-.2.3-.5.3-.8.4-.6,0-1.3,0-1.9,0-.9,0-1.8,0-2.7-.2s-1-.5-.1-.8c1.7-.5,3.8-.2,5.5,0Z"/>
        <path class="st37" d="M304.6,235.5c.5,0,1,0,1.4,0s.9.4,1.2.9c-1.8.5-4.1.4-5.8-.6.5-.8,2.5-.4,3.2-.5Z"/>
        <path class="st37" d="M300.1,237c0,0,.1,0,.2,0,0,0,.1.2,0,.3s-.2.2-.3.2c-.9.5-1.8,1.2-2.6,1.9.4-1.1,1.7-2.1,2.6-2.5Z"/>
      </g>
      <path class="st22" d="M256.9,248.2c-3.1-1.2-6.4-2.4-8.4-5.4,4.1,8.4,12.9,11.2,21.1,13.5-6.5,2-13.2,2.6-19.6,1.5-3.9-.6-7.9-2.1-9.7-6.1,5.6,10.6,17.1,13.9,27.9,15.6-6.2,2.7-12.7,4-19,3.8,4.5,3.1,10.4,1.6,15.5-.9,4.2-2,11.6-5.4,14.6-9.9,4.1-6.2-1.7-5.8-5.4-6.7-5.8-1.4-11.3-3.4-16.9-5.5Z"/>
    </g>
    <path class="st12" d="M159.6,743.1s1.2-12.4,3.6-15.4,8.1-2.5,11.5-1c3.4,1.4,7.5,10.2,7.2,11s-5.4,5.6-11,7.2c-5.6,1.5-10.7-.6-10.7-.6l-.5-1.2Z"/>
    <path class="st12" d="M185,752.9s1.2-12.4,3.6-15.4c2.3-2.9,8.1-2.5,11.5-1,3.4,1.4,7.5,10.2,7.2,11s-5.4,5.6-11,7.2c-5.6,1.5-10.7-.6-10.7-.6l-.5-1.2Z"/>
  </g>
</svg>